<svg height="512" viewBox="0 0 512 512" width="512" xmlns="http://www.w3.org/2000/svg"><path d="m296 272h16v16h-16z"/><path d="m160 72a24.027 24.027 0 0 0 -24 24v8h-8a24.113 24.113 0 0 0 -24 24 24.027 24.027 0 0 0 24 24h52.688l51.312 51.312v284.688a8 8 0 0 0 8 8h32a8 8 0 0 0 8-8v-168h56a8 8 0 0 0 8-8v-56a8 8 0 0 0 8-8v-40a8 8 0 0 0 -8-8h-60.688l48-48h17.376l.468.469a113.842 113.842 0 0 0 143.282 14.187 8 8 0 0 0 -8.876-13.312 97.86 97.86 0 0 1 -110.162-1.344h10.6a24.113 24.113 0 0 0 24-24 24.027 24.027 0 0 0 -24-24h-8v-8a24 24 0 0 0 -48 0v8h-48v-48a23.96 23.96 0 0 0 -16-22.526v-9.474a8 8 0 0 0 -16 0v9.474a23.96 23.96 0 0 0 -16 22.526v48h-48v-8a24.027 24.027 0 0 0 -24-24zm-8 24a8 8 0 0 1 16 0v8h-16zm51.312 56h28.688v28.688zm124.688 152h-48v-48h48zm8-64h-56v-24h56zm-56-59.312v-28.688h28.688zm64-84.688a8 8 0 0 1 16 0v8h-16zm40 24a8.011 8.011 0 0 1 8 8 7.8 7.8 0 0 1 -2.445 5.695 7.672 7.672 0 0 1 -5.555 2.305h-104v-16zm-136-64a8 8 0 0 1 16 0v424h-16zm-16 80h-104a8.011 8.011 0 0 1 -8-8 7.8 7.8 0 0 1 2.445-5.695 7.672 7.672 0 0 1 5.555-2.305h104z"/></svg>