<?xml version="1.0"?>
<svg xmlns="http://www.w3.org/2000/svg" id="outline" viewBox="0 0 512 512" width="512" height="512"><path d="M368,232a32,32,0,1,0-32-32A32.03635,32.03635,0,0,0,368,232Zm0-48a16,16,0,1,1-16,16A16.01833,16.01833,0,0,1,368,184Z"/><circle cx="384" cy="248" r="8"/><circle cx="352" cy="248" r="8"/><rect x="288" y="176" width="24" height="16"/><rect x="288" y="208" width="24" height="16"/><rect x="288" y="240" width="24" height="16"/><rect x="248" y="176" width="24" height="16"/><rect x="248" y="208" width="24" height="16"/><rect x="248" y="240" width="24" height="16"/><path d="M120,256h64a8.00008,8.00008,0,0,0,8-8V176a8.00008,8.00008,0,0,0-8-8H120a8.00008,8.00008,0,0,0-8,8v72A8.00008,8.00008,0,0,0,120,256Zm8-72h48v56H128Z"/><rect x="144" y="200" width="16" height="24"/><path d="M464,328.61011V72a8.00008,8.00008,0,0,0-8-8H424a8.00008,8.00008,0,0,0-8,8v64h-3.05566l-13.78907-27.57812A7.99967,7.99967,0,0,0,392,104H318.24634l-6.48511-25.94043A8.00005,8.00005,0,0,0,304,72H240a8.00005,8.00005,0,0,0-7.76123,6.05957L225.75366,104H214.24634l-6.48511-25.94043A8.00005,8.00005,0,0,0,200,72H160a8.00005,8.00005,0,0,0-7.76123,6.05957L145.75366,104H120a7.99967,7.99967,0,0,0-7.15527,4.42188L99.05566,136H96V80a8.00008,8.00008,0,0,0-8-8H56a8.00008,8.00008,0,0,0-8,8v92.686L18.34326,202.34277A8.00076,8.00076,0,0,0,16,208V440a8.00008,8.00008,0,0,0,8,8H56a8.00008,8.00008,0,0,0,8-8V373.18506a71.955,71.955,0,0,0,48,26.35986V440a8.00008,8.00008,0,0,0,8,8h32a8.00008,8.00008,0,0,0,8-8V400H370.02527A63.999,63.999,0,1,0,464,328.61011ZM432,80h16V322.02539A63.884,63.884,0,0,0,432,320ZM376.61011,352H352V288h64v34.02539A64.24343,64.24343,0,0,0,376.61011,352ZM120,352a24.038,24.038,0,0,1-22.62378-16H200a8.00008,8.00008,0,0,0,8-8V288h16v64ZM96,288h96v32H96Zm144,0h96v64H240Zm6.24609-200h51.50782l3.99987,16H242.24622Zm-80,0h27.50782l3.99987,16H162.24622Zm-41.30175,32H387.05566l8,16H116.94434ZM416,152V272H96V152ZM80,88v82.707A27.83231,27.83231,0,0,0,68,168H64V88ZM32,211.31348,59.31348,184H68a12,12,0,0,1,0,24H56a8.00008,8.00008,0,0,0-8,8v40H32ZM48,328v32H32V272H48ZM32,432V376H48v56Zm112,0H128V400h16Zm-24-48a56.06322,56.06322,0,0,1-56-56V224h4a27.83231,27.83231,0,0,0,12-2.707V328a40.04552,40.04552,0,0,0,40,40H370.02527A63.89479,63.89479,0,0,0,368,384Zm312,48a48,48,0,1,1,48-48A48.05405,48.05405,0,0,1,432,432Z"/><path d="M432,360a24,24,0,1,0,24,24A24.02718,24.02718,0,0,0,432,360Zm0,32a8,8,0,1,1,8-8A8.00917,8.00917,0,0,1,432,392Z"/></svg>
