<?xml version="1.0" encoding="utf-8"?>
<!-- Generator: Adobe Illustrator 25.2.1, SVG Export Plug-In . SVG Version: 6.00 Build 0)  -->
<svg version="1.1" id="Layer_1" xmlns="http://www.w3.org/2000/svg" xmlns:xlink="http://www.w3.org/1999/xlink" x="0px" y="0px"
	 viewBox="0 0 1920 1080" style="enable-background:new 0 0 1920 1080;" xml:space="preserve">
<style type="text/css">
	.st0{fill:#8AB3F5;}
	.st1{fill:#FFFFFF;}
	.st2{fill:#CDCDCC;stroke:#000000;stroke-width:0.5;stroke-miterlimit:10;}
	.st3{opacity:0.4;}
	.st4{fill:none;stroke:#000000;stroke-miterlimit:10;}
	.st5{fill:#FFE422;}
	.st6{fill:#2F292B;}
	.st7{fill:#5895F2;}
	.st8{opacity:0.75;fill:#FFE106;}
	.st9{fill:none;}
	.st10{font-family:'NeueHaasUnicaPro-Bold';}
	.st11{font-size:20px;}
	.st12{fill:#CDCDCC;}
	.st13{fill:#FFE106;}
	.st14{fill:none;stroke:#000000;stroke-width:0.5;stroke-miterlimit:10;}
	.st15{fill-rule:evenodd;clip-rule:evenodd;}
</style>
<g>
	<circle class="st0" cx="708.4" cy="663.59" r="20"/>
	<g>
		
			<rect x="701.09" y="660.3" transform="matrix(0.7071 -0.7072 0.7072 0.7071 -260.9926 697.1583)" class="st1" width="19.74" height="6.58"/>
		
			<rect x="697.9" y="659.84" transform="matrix(0.7072 -0.707 0.707 0.7072 -263.5321 689.9019)" class="st1" width="6.58" height="6.58"/>
	</g>
</g>
<g>
	<rect x="684.22" y="570.48" class="st2" width="48.35" height="29.69"/>
	<g>
		<g>
			<g>
				<rect x="692.32" y="581.51" width="8.04" height="7.63"/>
			</g>
			<g>
				<rect x="704.38" y="581.51" width="8.04" height="7.63"/>
			</g>
			<g>
				<rect x="716.44" y="581.51" width="8.04" height="7.63"/>
			</g>
			<g>
				<rect x="696.34" y="584.75" width="24.12" height="1.15"/>
			</g>
		</g>
	</g>
</g>
<g>
	<g>
		<rect x="478.58" y="453.56" transform="matrix(0.9843 -0.1766 0.1766 0.9843 -72.6904 93.0221)" width="15.21" height="2.53"/>
	</g>
	<rect x="474.14" y="440.26" width="40.55" height="3.17"/>
	<g>
		<g>
			<path d="M515.86,465.11c-5.02-0.04-9.02-4.06-9-9.05c0.02-4.99,4.11-9.05,9.05-9c4.99,0.05,9.05,4.15,8.98,9.08
				C524.84,461.14,520.81,465.14,515.86,465.11z M515.77,448.53c-2.94-0.06-5.79,1.73-6.99,4.65c-1.29,3.12-0.42,6.55,2.17,8.75
				c2.36,2.01,5.99,2.32,8.62,0.76c2.84-1.68,3.95-4.68,3.75-6.59c-0.6,0-1.2,0-1.8,0c-0.15,3.72-3.21,5.77-5.81,5.68
				c-2.92-0.1-5.33-2.35-5.59-5.15c-0.26-2.85,1.84-6.13,5.66-6.27C515.77,449.76,515.77,449.16,515.77,448.53z"/>
		</g>
		<g>
			<g>
				<polyline class="st1" points="516.95,453.84 514.58,456.22 516.95,456.22 514.58,458.6 				"/>
			</g>
		</g>
	</g>
	<g>
		<g>
			<path d="M479.75,465.11c-5.02-0.04-9.02-4.06-9-9.05c0.02-4.99,4.11-9.05,9.05-9c4.99,0.05,9.05,4.15,8.98,9.08
				C488.73,461.14,484.7,465.14,479.75,465.11z M479.66,448.53c-2.94-0.06-5.79,1.73-6.99,4.65c-1.29,3.12-0.42,6.55,2.17,8.75
				c2.36,2.01,5.99,2.32,8.62,0.76c2.84-1.68,3.95-4.68,3.75-6.59c-0.6,0-1.2,0-1.8,0c-0.15,3.72-3.21,5.77-5.81,5.68
				c-2.92-0.1-5.33-2.35-5.59-5.15c-0.26-2.85,1.84-6.13,5.66-6.27C479.66,449.76,479.66,449.16,479.66,448.53z"/>
		</g>
		<g>
			<g>
				<polyline class="st1" points="480.84,453.84 478.46,456.22 480.84,456.22 478.46,458.6 				"/>
			</g>
		</g>
	</g>
	<rect x="510.49" y="436.93" transform="matrix(0.9266 -0.376 0.376 0.9266 -130.1305 225.0069)" width="1.9" height="17.98"/>
	<g>
		<g>
			<g>
				<g>
					<rect x="496.61" y="445.77" width="6.85" height="9.13"/>
				</g>
				<g>
					<path d="M503.51,454.96h-6.96v-9.25h6.96V454.96z M496.66,454.84h6.74v-9.02h-6.74V454.84z"/>
				</g>
			</g>
			<g>
				<g>
					<g>
						<polygon points="496.61,443.48 496.61,445.77 497.75,445.77 497.75,444.62 502.31,444.62 502.31,445.77 503.46,445.77 
							503.46,443.48 						"/>
					</g>
					<g>
						<path d="M503.51,445.82h-1.26v-1.14h-4.45v1.14h-1.26v-2.4h6.96V445.82z M502.37,445.71h1.03v-2.17h-6.74v2.17h1.03v-1.14
							h4.68V445.71z"/>
					</g>
				</g>
			</g>
			<g>
				<g>
					<rect x="496.61" y="454.9" width="1.14" height="1.14"/>
				</g>
				<g>
					<path d="M497.8,456.1h-1.26v-1.26h1.26V456.1z M496.66,455.98h1.03v-1.03h-1.03V455.98z"/>
				</g>
			</g>
			<g>
				<g>
					<rect x="502.31" y="454.9" width="1.14" height="1.14"/>
				</g>
				<g>
					<path d="M503.51,456.1h-1.26v-1.26h1.26V456.1z M502.37,455.98h1.03v-1.03h-1.03V455.98z"/>
				</g>
			</g>
		</g>
		<g>
			<g>
				<polyline class="st1" points="501.12,448.05 498.83,450.33 501.12,450.33 498.83,452.62 				"/>
			</g>
		</g>
	</g>
	<g>
		<path d="M508.04,443.43l-5.07,10.14h-10.14l-2.53-10.14H508.04 M511.28,441.43h-3.24H490.3h-2.56l0.62,2.49l2.53,10.14l0.38,1.51
			h1.56h10.14h1.24l0.55-1.11l5.07-10.14L511.28,441.43L511.28,441.43z"/>
	</g>
	<rect x="492.52" y="454.2" width="11.4" height="3.17"/>
	<circle cx="492.83" cy="454.51" r="2.85"/>
	<rect x="504.56" y="436.11" width="4.43" height="1.9"/>
</g>
<g>
	<polyline points="505.01,575.21 490.65,589.58 505.01,589.58 490.65,603.95 	"/>
</g>
<g>
	<g>
		<g class="st3">
			<g>
				<g>
					<g>
						<path d="M507.7,505.06c0-0.95,0-1.87,0-2.8c-1.48,0-2.95,0-4.43,0v11.24c1.48,0,2.96,0,4.44,0c0-0.94,0-1.86,0-2.8
							c0.47,0,0.93,0,1.39,0c0-1.89,0-3.75,0-5.64C508.63,505.06,508.17,505.06,507.7,505.06z"/>
					</g>
				</g>
			</g>
		</g>
		<g>
			<g>
				<g>
					<g>
						<path d="M486.57,502.26c0,3.76,0,7.5,0,11.24c5.57,0,11.13,0,16.7,0v-11.24C497.7,502.26,492.13,502.26,486.57,502.26z"/>
					</g>
				</g>
			</g>
		</g>
	</g>
	<g>
		<g>
			<g>
				<g>
					<path d="M481,507.81c0,0.51,0,0.99,0,1.5c-2.78,0-5.54,0-8.33,0c0-0.5,0-0.98,0-1.5C475.45,507.81,478.21,507.81,481,507.81z"
						/>
				</g>
			</g>
		</g>
	</g>
	<g>
		<g>
			<g>
				<g>
					<path d="M514.65,509.31c0-0.51,0-0.99,0-1.5c2.78,0,5.54,0,8.34,0c0,0.51,0,0.99,0,1.5
						C520.2,509.31,517.44,509.31,514.65,509.31z"/>
				</g>
			</g>
		</g>
	</g>
	<g>
		<g>
			<g>
				<g>
					<path d="M510.8,496.58c-0.31-0.31-0.66-0.67-0.99-1.01c1.76-1.76,3.52-3.52,5.28-5.28c0.31,0.33,0.66,0.69,0.97,1.02
						C514.33,493.05,512.57,494.81,510.8,496.58z"/>
				</g>
			</g>
		</g>
	</g>
	<g>
		<g>
			<g>
				<g>
					<path d="M480.52,526.13c-0.29-0.31-0.63-0.67-0.92-0.98c1.73-1.73,3.49-3.49,5.27-5.27c0.3,0.3,0.65,0.65,0.95,0.95
						C484.06,522.6,482.31,524.35,480.52,526.13z"/>
				</g>
			</g>
		</g>
	</g>
	<g>
		<g>
			<g>
				<g>
					<path d="M480.57,490.31c1.75,1.75,3.51,3.5,5.28,5.27c-0.33,0.3-0.69,0.63-0.99,0.91c-1.73-1.72-3.49-3.48-5.24-5.22
						C479.89,491,480.23,490.65,480.57,490.31z"/>
				</g>
			</g>
		</g>
	</g>
	<g>
		<g>
			<g>
				<g>
					<path d="M509.82,520.89c0.33-0.34,0.68-0.7,1-1.02c1.78,1.78,3.54,3.53,5.3,5.3c-0.33,0.34-0.68,0.7-1,1.02
						C513.33,524.41,511.58,522.65,509.82,520.89z"/>
				</g>
			</g>
		</g>
	</g>
</g>
<path d="M497.88,407.18c-4.8,0-8.77-3.72-9.09-8.46c-0.09-1.33,0.24-2.58,0.66-3.82c1.3-3.8,3.15-7.35,5.07-10.87
	c0.83-1.52,1.71-3.02,2.58-4.51c0.48-0.83,1-0.81,1.48,0.01c2.6,4.41,5.09,8.88,7.01,13.65c0.66,1.63,1.29,3.27,1.3,5.07
	c0.01,4.61-3.72,8.59-8.31,8.89C498.33,407.14,498.08,407.16,497.88,407.18z"/>
<g>
	<rect x="466.79" y="271.92" width="15.52" height="15.52"/>
	<rect x="490.07" y="271.92" width="15.52" height="15.52"/>
	<rect x="513.35" y="271.92" width="15.52" height="15.52"/>
	<line class="st4" x1="474.55" y1="279.68" x2="521.11" y2="279.68"/>
</g>
<g id="EjVD0K.tif_10_">
	<g>
		<path d="M483.53,350.29c9.53-9.53,19.07-19.07,28.61-28.6c0,9.51,0,19.04,0,28.6C502.59,350.29,493.05,350.29,483.53,350.29z"/>
	</g>
</g>
<g>
	<g>
		<rect x="462.07" y="632.55" width="71.51" height="28.61"/>
	</g>
	<g>
		<path class="st5" d="M533.59,657.58c-13.79,0-18.87-2.93-22.58-5.07c-2.09-1.21-3.6-2.08-6.02-2.08c-3.28,0-4.91,1.64-6.65,3.37
			c-1.86,1.86-3.79,3.79-7.66,3.79c-4.02,0-5.94-3.84-7.79-7.55c-1.74-3.47-3.38-6.76-6.51-6.76c-3.13,0-4.77,3.28-6.51,6.76
			c-1.85,3.71-3.77,7.55-7.79,7.55v-1.43c3.13,0,4.77-3.28,6.51-6.76c1.85-3.71,3.77-7.55,7.79-7.55c4.02,0,5.94,3.84,7.79,7.55
			c1.74,3.47,3.38,6.76,6.51,6.76c3.28,0,4.91-1.64,6.65-3.37c1.86-1.86,3.79-3.79,7.66-3.79c2.81,0,4.63,1.05,6.74,2.27
			c3.57,2.06,8.46,4.88,21.87,4.88V657.58z"/>
	</g>
	<g>
		<circle class="st5" cx="508.56" cy="650.43" r="3.58"/>
	</g>
</g>
<g>
	<g>
		<g id="BvuWaO.tif_4_">
			<g>
				<path d="M181.74,478.93c3.45,0.05,6.94,0.92,10.39,2c2.96,0.93,5.93,1.87,8.92,2.7c2.24,0.63,4.54,0.86,6.88,0.6
					c2.19-0.25,4.24-0.94,6.15-2.05c0.18-0.11,0.36-0.21,0.55-0.31c0.61-0.32,1.18-0.2,1.5,0.32c0.31,0.51,0.14,1.15-0.44,1.5
					c-1.77,1.08-3.65,1.89-5.68,2.33c-3.04,0.66-6.09,0.55-9.07-0.24c-3.19-0.85-6.33-1.88-9.48-2.85c-2.6-0.8-5.21-1.52-7.93-1.81
					c-4.31-0.45-8.37,0.35-12.21,2.34c-0.2,0.1-0.4,0.21-0.6,0.3c-0.56,0.25-1.16,0.04-1.43-0.47c-0.25-0.5-0.08-1.09,0.44-1.4
					c1.99-1.15,4.13-1.92,6.37-2.44C177.89,479.05,179.71,478.88,181.74,478.93z"/>
				<path d="M181.21,493.78c3.85,0.06,7.52,0.97,11.16,2.13c2.82,0.9,5.63,1.8,8.48,2.59c1.94,0.54,3.94,0.79,5.97,0.71
					c2.6-0.1,5.02-0.83,7.27-2.13c0.22-0.13,0.44-0.26,0.67-0.37c0.52-0.25,1.13-0.05,1.4,0.44c0.25,0.46,0.09,1.11-0.37,1.4
					c-2.23,1.37-4.62,2.28-7.22,2.65c-3.13,0.45-6.18-0.02-9.17-0.88c-2.8-0.8-5.56-1.73-8.34-2.59c-2.28-0.71-4.58-1.32-6.96-1.62
					c-4.19-0.53-8.2,0.08-12.02,1.89c-0.45,0.21-0.89,0.44-1.34,0.65c-0.61,0.28-1.19,0.1-1.46-0.45c-0.25-0.51-0.06-1.11,0.5-1.41
					c2.74-1.48,5.63-2.47,8.74-2.79C179.41,493.9,180.31,493.85,181.21,493.78z"/>
				<path d="M205.79,516.25c-2.87-0.03-5.97-0.78-9.03-1.76c-2.86-0.91-5.71-1.85-8.59-2.68c-2.55-0.74-5.17-1.07-7.84-0.97
					c-3.17,0.12-6.15,0.97-8.97,2.42c-0.23,0.12-0.45,0.24-0.68,0.35c-0.52,0.23-1.15,0.01-1.39-0.47c-0.25-0.51-0.09-1.14,0.43-1.4
					c1.16-0.56,2.32-1.14,3.52-1.59c4.15-1.54,8.41-1.73,12.74-0.97c3.42,0.6,6.67,1.74,9.96,2.81c2.29,0.74,4.57,1.47,6.95,1.87
					c3.99,0.68,7.78,0.2,11.3-1.9c0.17-0.1,0.34-0.2,0.51-0.29c0.53-0.29,1.15-0.12,1.44,0.39c0.28,0.47,0.11,1.1-0.38,1.41
					C212.95,515.27,209.56,516.26,205.79,516.25z"/>
			</g>
		</g>
		<g id="WMBexC.tif_4_">
			<g>
				<path d="M247.61,500.86c0.01-1.72,0.74-4.31,1.82-6.81c1.58-3.66,3.79-6.94,6.27-10.04c1.16-1.45,2.38-2.84,3.59-4.25
					c0.54-0.62,1.18-0.64,1.7-0.05c2.95,3.3,5.71,6.73,7.95,10.56c1.6,2.73,2.89,5.59,3.46,8.73c0.85,4.68-0.1,8.93-3.18,12.61
					c-4.52,5.4-12.31,5.75-17.34,0.84C249.11,509.74,247.63,506.07,247.61,500.86z M260.18,481.99c-0.14,0.14-0.25,0.23-0.35,0.34
					c-1.85,2.18-3.63,4.4-5.21,6.79c-1.88,2.83-3.54,5.77-4.41,9.08c-1.15,4.4-0.56,8.51,2.44,12.02c2.63,3.08,6.01,4.31,9.98,3.24
					c3.39-0.92,5.62-3.25,6.98-6.44c1.4-3.3,1.21-6.62,0.1-9.95c-1.01-3.04-2.59-5.79-4.37-8.43
					C263.79,486.32,262.03,484.15,260.18,481.99z"/>
				<path d="M253.78,502.24c0.18,2.33,0.91,4.41,2.78,5.96c0.42,0.35,0.49,1.01,0.16,1.43c-0.33,0.42-0.96,0.52-1.42,0.19
					c-0.98-0.69-1.73-1.58-2.31-2.62c-0.92-1.64-1.37-3.4-1.29-5.28c0.01-0.24,0.05-0.5,0.14-0.73c0.17-0.4,0.7-0.64,1.1-0.56
					c0.46,0.09,0.81,0.48,0.84,0.95C253.79,501.8,253.78,502.02,253.78,502.24z"/>
			</g>
		</g>
	</g>
	<g>
		<path d="M262.58,409.44c1.93-0.51,3.79-1.06,5.68-1.47c2.02-0.44,4.08-0.65,6.13-0.18c1.81,0.42,3.19,1.35,3.53,3.33
			c0.18,1.04-0.03,2.05-0.37,3.03c-0.84,2.37-2.28,4.37-3.89,6.25c-1.15,1.34-2.38,2.61-3.6,3.93c0.87,0.88,1.77,1.79,2.69,2.68
			c0.1,0.09,0.32,0.12,0.47,0.09c0.75-0.12,1.4,0.08,1.88,0.66c0.51,0.62,0.59,1.32,0.3,2.08c-0.07,0.18,0.01,0.48,0.12,0.66
			c0.91,1.39,1.76,2.81,2.12,4.45c0.17,0.8,0.26,1.67,0.15,2.48c-0.26,1.85-1.61,2.7-3.27,3.14c-1.69,0.45-3.41,0.38-5.09,0.04
			c-2.03-0.41-4.03-1-6.04-1.52c-0.22-0.06-0.44-0.14-0.72-0.23c-0.16,0.65-0.3,1.26-0.46,1.88c-0.67,2.52-1.44,5.02-2.87,7.23
			c-0.65,0.99-1.44,1.95-2.36,2.7c-1.48,1.21-3.33,1.09-4.84-0.09c-1.66-1.3-2.71-3.07-3.44-4.98c-0.78-2.02-1.35-4.13-2-6.2
			c-0.06-0.18-0.1-0.37-0.15-0.6c-1.06,0.34-2.09,0.7-3.12,1c-2.32,0.68-4.68,1.18-7.11,1.09c-0.68-0.03-1.37-0.1-2.01-0.28
			c-2.66-0.72-3.79-2.78-3.07-5.53c0.43-1.64,1.25-3.09,2.2-4.47c0.21-0.3,0.31-0.54,0.17-0.94c-0.41-1.22,0.53-2.52,1.82-2.51
			c0.53,0.01,0.86-0.17,1.2-0.53c0.74-0.8,1.51-1.56,2.28-2.35c-1.03-1.09-2.09-2.18-3.1-3.3c-1.73-1.91-3.27-3.96-4.23-6.38
			c-0.25-0.63-0.43-1.3-0.53-1.96c-0.35-2.5,0.95-4.33,3.41-4.88c2.19-0.49,4.38-0.31,6.53,0.21c1.88,0.46,3.73,1.04,5.64,1.58
			c0.28-0.99,0.57-2.03,0.86-3.07c0.05-0.19,0.08-0.38,0.17-0.56c0.24-0.51,0.22-0.9-0.13-1.42c-0.77-1.17,0.1-2.79,1.5-2.9
			c0.34-0.03,0.51-0.16,0.67-0.44c0.68-1.17,1.48-2.24,2.58-3.05c1.58-1.17,3.42-1.11,4.94,0.14c1.68,1.38,2.7,3.21,3.45,5.19
			c0.68,1.79,1.18,3.65,1.76,5.48C262.51,409.11,262.55,409.3,262.58,409.44z M246.69,424.21
			C246.69,424.21,246.69,424.21,246.69,424.21c-0.01,1.32,0.01,2.64-0.01,3.96c-0.01,0.4,0.13,0.65,0.45,0.86
			c2.04,1.28,4.06,2.59,6.1,3.86c1.31,0.82,1.35,0.82,2.67-0.01c2.19-1.37,4.36-2.77,6.52-4.19c0.19-0.12,0.32-0.47,0.32-0.72
			c0-2.47-0.03-4.94-0.04-7.4c0-0.42-0.13-0.68-0.49-0.9c-2.43-1.5-4.85-3.01-7.26-4.53c-0.32-0.2-0.57-0.21-0.89-0.01
			c-2.34,1.49-4.7,2.96-7.03,4.46c-0.17,0.11-0.33,0.39-0.33,0.6C246.68,421.52,246.69,422.86,246.69,424.21z M246.3,411.06
			c-2.61-1.03-5.32-1.79-8.13-2.1c-1.4-0.16-2.79-0.14-4.12,0.43c-1.24,0.53-1.84,1.51-1.63,2.83c0.1,0.63,0.25,1.26,0.49,1.85
			c0.93,2.3,2.41,4.25,4.05,6.08c0.98,1.09,2.02,2.13,3.02,3.18c1.35-1.1,2.57-2.23,3.93-3.16c1.07-0.73,1.57-1.53,1.64-2.86
			C245.64,415.24,246.02,413.18,246.3,411.06z M268.99,423.29c0.05-0.04,0.14-0.1,0.2-0.17c1.53-1.68,3.12-3.31,4.57-5.06
			c1.3-1.58,2.37-3.32,2.78-5.38c0.35-1.76-0.35-3.02-2.08-3.47c-0.94-0.25-1.97-0.38-2.93-0.27c-1.83,0.21-3.64,0.57-5.44,0.97
			c-1.07,0.24-2.09,0.68-3.02,0.99c0.31,2.77,0.61,5.41,0.92,8.05c0.02,0.17,0.12,0.38,0.24,0.48
			C265.79,420.71,267.38,421.99,268.99,423.29z M237.25,427.98c0.78,1.94-0.16,3.21-2.18,3.07c-0.14-0.01-0.34,0.09-0.42,0.2
			c-0.97,1.42-1.83,2.89-2.15,4.61c-0.3,1.59,0.26,2.84,1.68,3.29c0.94,0.3,1.98,0.48,2.97,0.45c3.02-0.09,5.9-0.87,8.73-1.89
			c0.33-0.12,0.4-0.27,0.36-0.6c-0.29-2.37-0.56-4.74-0.87-7.11c-0.03-0.27-0.23-0.57-0.44-0.74c-1.04-0.85-2.11-1.66-3.15-2.5
			c-0.6-0.48-1.18-0.99-1.78-1.51C239.06,426.19,238.16,427.07,237.25,427.98z M261.42,438.55c-2.2-1.06-4.34-2.08-6.46-3.13
			c-0.34-0.17-0.58-0.15-0.9,0.02c-1.49,0.75-3,1.48-4.5,2.19c-0.54,0.26-1.1,0.46-1.68,0.71c0.69,3.15,1.49,6.21,3.19,8.93
			c0.52,0.84,1.23,1.61,1.99,2.25c1.06,0.9,2.36,0.82,3.4-0.11c0.56-0.5,1.1-1.06,1.52-1.68
			C259.84,444.94,260.7,441.76,261.42,438.55z M263.06,437.57c0.02,0.01,0.1,0.06,0.19,0.1c2.26,0.86,4.57,1.53,6.97,1.84
			c1.55,0.2,3.11,0.24,4.6-0.34c1.31-0.5,1.9-1.42,1.79-2.81c-0.15-2-1.22-3.61-2.33-5.19c-0.06-0.08-0.26-0.12-0.39-0.1
			c-1.6,0.23-2.74-1.14-2.23-2.69c0.04-0.13,0.09-0.35,0.02-0.41c-0.91-0.91-1.85-1.81-2.75-2.68c-1.56,1.24-3.13,2.48-4.69,3.73
			c-0.13,0.11-0.24,0.3-0.26,0.47C263.66,432.15,263.37,434.81,263.06,437.57z M247.9,409.99c2.15,1.05,4.22,2.06,6.3,3.05
			c0.17,0.08,0.45,0.02,0.63-0.07c1.42-0.66,2.83-1.36,4.26-2.03c0.72-0.34,1.45-0.63,2.21-0.96c-0.72-3.07-1.56-6.05-3.25-8.71
			c-0.46-0.73-1.05-1.4-1.7-1.97c-1.1-0.97-2.21-0.96-3.4-0.1c-1.03,0.75-1.69,1.8-2.29,2.87c1.13,1.55,0.6,2.99-1.23,3.47
			c-0.12,0.03-0.27,0.15-0.3,0.27C248.71,407.21,248.31,408.61,247.9,409.99z M262.58,430.27c-2.25,1.43-4.37,2.77-6.6,4.18
			c1.94,0.91,3.8,1.78,5.77,2.7C262.04,434.8,262.31,432.59,262.58,430.27z M261.7,411.34c-1.99,0.92-3.83,1.78-5.72,2.66
			c2.24,1.41,4.36,2.75,6.62,4.18C262.29,415.87,262.01,413.69,261.7,411.34z M253.07,434.44c-2.15-1.34-4.18-2.61-6.34-3.95
			c0.28,2.21,0.55,4.31,0.84,6.55C249.48,436.14,251.22,435.31,253.07,434.44z M253.05,414.01c-1.8-0.83-3.55-1.64-5.41-2.5
			c-0.28,2.21-0.55,4.28-0.83,6.43C248.95,416.59,250.96,415.32,253.05,414.01z M240.96,424.23c1.47,1.2,2.83,2.31,4.26,3.48
			c0-2.39,0-4.61,0-6.96C243.77,421.93,242.42,423.03,240.96,424.23z M264.11,421.01c0,2.18,0,4.21,0,6.39
			c1.34-1.1,2.58-2.13,3.87-3.2C266.67,423.12,265.44,422.11,264.11,421.01z"/>
		<g>
			<path d="M167.35,413.34c-0.49-0.38-0.95-0.72-1.42-1.09c-0.18,0.24-0.35,0.46-0.53,0.69c-0.3,0.38-0.81,0.46-1.2,0.19
				c-0.36-0.26-0.46-0.82-0.18-1.2c0.79-1.08,1.61-2.14,2.41-3.21c0.9-1.2,1.78-2.41,2.7-3.6c0.17-0.22,0.45-0.39,0.72-0.47
				c0.32-0.09,0.61,0.07,0.8,0.37c0.18,0.29,0.18,0.6,0.01,0.89c-0.16,0.27-0.35,0.52-0.55,0.8c0.47,0.35,0.93,0.7,1.42,1.07
				c0.15-0.18,0.29-0.33,0.4-0.51c0.23-0.35,0.56-0.47,0.96-0.47c0.84,0.01,1.68,0.01,2.51-0.01c0.15,0,0.36-0.11,0.44-0.24
				c0.99-1.44,1.97-2.9,2.93-4.36c0.29-0.44,0.65-0.63,1.18-0.63c6.19,0.01,12.38,0.01,18.58,0.01c0.84,0,1.13,0.29,1.13,1.12
				c0,13.75,0,27.49,0,41.24c0,0.86-0.28,1.14-1.15,1.14c-10.24,0-20.49,0-30.73,0c-0.87,0-1.15-0.28-1.15-1.14
				c0-9.57,0-19.14-0.01-28.71c0-0.61,0.09-1.14,0.52-1.59C167.21,413.56,167.27,413.46,167.35,413.34z M197.93,403.34
				c-0.08-0.01-0.13-0.03-0.18-0.03c-1.74,0-3.48-0.01-5.22,0.01c-0.14,0-0.31,0.14-0.4,0.26c-0.97,1.44-1.94,2.88-2.89,4.34
				c-0.28,0.43-0.62,0.62-1.14,0.62c-4.85-0.01-9.71-0.01-14.56-0.02c-0.28,0-0.45,0.09-0.62,0.31c-1.44,1.92-2.89,3.83-4.33,5.76
				c-0.14,0.18-0.23,0.45-0.23,0.67c-0.01,9.21-0.01,18.41-0.01,27.62c0,0.13,0,0.27,0,0.43c9.87,0,19.71,0,29.57,0
				C197.93,429.98,197.93,416.68,197.93,403.34z M190.2,403.34c-0.12-0.02-0.17-0.03-0.21-0.03c-3.2,0-6.4,0-9.6,0.01
				c-0.14,0-0.33,0.11-0.41,0.23c-0.62,0.89-1.22,1.79-1.83,2.7c-0.11,0.16-0.21,0.32-0.37,0.55c0.49,0,0.89,0,1.3,0
				c2.82,0,5.65,0,8.47-0.01c0.14,0,0.35-0.05,0.42-0.15C188.71,405.57,189.44,404.48,190.2,403.34z M168.37,411.96
				c0.71-0.95,1.39-1.87,2.09-2.8c-0.48-0.35-0.92-0.69-1.4-1.04c-0.7,0.94-1.39,1.85-2.09,2.78
				C167.43,411.25,167.88,411.59,168.37,411.96z"/>
			<path d="M193.57,439.92c-0.23-0.15-0.5-0.26-0.69-0.45c-1.54-1.52-3.06-3.06-4.61-4.57c-0.14-0.14-0.38-0.24-0.58-0.24
				c-3.03-0.02-6.05-0.01-9.08-0.02c-0.26,0-0.44,0.09-0.62,0.27c-1.52,1.54-3.06,3.06-4.59,4.59c-0.54,0.53-1.32,0.37-1.54-0.3
				c-0.13-0.39,0.06-0.68,0.32-0.93c1.11-1.1,2.22-2.21,3.33-3.31c0.45-0.45,0.91-0.89,1.35-1.35c0.11-0.11,0.19-0.3,0.19-0.45
				c0.01-3.06,0.01-6.13,0-9.19c0-0.17-0.11-0.38-0.24-0.51c-1.52-1.56-3.06-3.1-4.59-4.65c-0.45-0.45-0.48-0.96-0.08-1.35
				c0.34-0.33,0.89-0.28,1.3,0.13c1.51,1.53,3.03,3.06,4.53,4.59c0.2,0.2,0.39,0.3,0.68,0.3c3-0.01,6-0.01,9.01,0
				c0.26,0,0.44-0.08,0.62-0.26c1.55-1.57,3.1-3.12,4.66-4.68c0.36-0.36,0.85-0.4,1.21-0.1c0.42,0.34,0.42,0.88-0.01,1.31
				c-1.5,1.51-2.99,3.02-4.51,4.51c-0.3,0.3-0.42,0.59-0.42,1.01c0.02,2.93,0.01,5.85,0,8.78c0,0.26,0.07,0.44,0.26,0.62
				c1.54,1.52,3.08,3.04,4.61,4.58c0.18,0.18,0.35,0.45,0.38,0.69C194.55,439.46,194.15,439.84,193.57,439.92z M187.49,424.21
				c-2.91,0-5.79,0-8.68,0c0,2.9,0,5.78,0,8.67c2.9,0,5.78,0,8.68,0C187.49,429.99,187.49,427.11,187.49,424.21z"/>
		</g>
	</g>
</g>
<g>
	<g>
		<rect x="681.62" y="425.8" transform="matrix(0.9843 -0.1766 0.1766 0.9843 -64.6241 128.8326)" width="19.51" height="3.25"/>
	</g>
	<rect x="675.93" y="408.73" width="52.02" height="4.06"/>
	<g>
		<g>
			<path d="M729.45,440.61c-6.44-0.05-11.57-5.2-11.54-11.61c0.03-6.4,5.27-11.61,11.61-11.55c6.4,0.06,11.61,5.32,11.53,11.65
				C740.97,435.52,735.8,440.65,729.45,440.61z M729.33,419.34c-3.77-0.07-7.43,2.22-8.97,5.97c-1.65,4-0.53,8.4,2.78,11.22
				c3.03,2.58,7.69,2.97,11.06,0.98c3.64-2.16,5.07-6,4.81-8.45c-0.77,0-1.54,0-2.31,0c-0.19,4.77-4.12,7.4-7.46,7.29
				c-3.74-0.12-6.84-3.02-7.17-6.61c-0.34-3.66,2.37-7.87,7.26-8.05C729.33,420.92,729.33,420.15,729.33,419.34z"/>
		</g>
		<g>
			<g>
				<polyline class="st5" points="730.85,426.16 727.8,429.21 730.85,429.21 727.8,432.26 				"/>
			</g>
		</g>
	</g>
	<g>
		<g>
			<path d="M683.12,440.61c-6.44-0.05-11.57-5.2-11.54-11.61c0.03-6.4,5.27-11.61,11.61-11.55c6.4,0.06,11.61,5.32,11.53,11.65
				C694.64,435.52,689.47,440.65,683.12,440.61z M683,419.34c-3.77-0.07-7.43,2.22-8.97,5.97c-1.65,4-0.53,8.4,2.78,11.22
				c3.03,2.58,7.69,2.97,11.06,0.98c3.64-2.16,5.07-6,4.81-8.45c-0.77,0-1.54,0-2.31,0c-0.19,4.77-4.12,7.4-7.46,7.29
				c-3.74-0.12-6.84-3.02-7.17-6.61c-0.34-3.66,2.37-7.87,7.26-8.05C683,420.92,683,420.15,683,419.34z"/>
		</g>
		<g>
			<g>
				<polyline class="st5" points="684.52,426.16 681.47,429.21 684.52,429.21 681.47,432.26 				"/>
			</g>
		</g>
	</g>
	<rect x="722.55" y="404.46" transform="matrix(0.9266 -0.376 0.376 0.9266 -103.2999 302.6436)" width="2.44" height="23.07"/>
	<g>
		<g>
			<g>
				<g>
					<rect x="704.74" y="415.8" class="st5" width="8.79" height="11.72"/>
				</g>
				<g>
					<path d="M713.6,427.59h-8.93v-11.86h8.93V427.59z M704.82,427.44h8.64v-11.57h-8.64V427.44z"/>
				</g>
			</g>
			<g>
				<g>
					<g>
						<polygon class="st5" points="704.74,412.87 704.74,415.8 706.21,415.8 706.21,414.33 712.07,414.33 712.07,415.8 
							713.53,415.8 713.53,412.87 						"/>
					</g>
					<g>
						<path d="M713.6,415.87h-1.61v-1.46h-5.71v1.46h-1.61v-3.08h8.93V415.87z M712.14,415.72h1.32v-2.78h-8.64v2.78h1.32v-1.46h6
							V415.72z"/>
					</g>
				</g>
			</g>
			<g>
				<g>
					<rect x="704.74" y="427.51" class="st5" width="1.46" height="1.46"/>
				</g>
				<g>
					<path d="M706.28,429.05h-1.61v-1.61h1.61V429.05z M704.82,428.9h1.32v-1.32h-1.32V428.9z"/>
				</g>
			</g>
			<g>
				<g>
					<rect x="712.07" y="427.51" class="st5" width="1.46" height="1.46"/>
				</g>
				<g>
					<path d="M713.6,429.05h-1.61v-1.61h1.61V429.05z M712.14,428.9h1.32v-1.32h-1.32V428.9z"/>
				</g>
			</g>
		</g>
		<g>
			<g>
				<polyline class="st6" points="710.53,418.73 707.6,421.65 710.53,421.65 707.6,424.58 				"/>
			</g>
		</g>
	</g>
	<g>
		<g>
			<path d="M698.3,399.15c-1.48,2.58-2.93,5.11-4.42,7.7c1.17,0.32,2.3,0.63,3.44,0.93c3.67,0.98,7.33,1.95,11,2.93
				c1.63,0.44,2.19,1.69,1.35,3.16c-2.84,4.95-5.7,9.88-8.56,14.82c-0.4,0.69-0.98,1.12-1.82,1.07c-0.76-0.04-1.33-0.39-1.65-1.08
				c-0.32-0.68-0.21-1.33,0.17-1.98c2.37-4.1,4.73-8.2,7.09-12.3c0.09-0.16,0.18-0.33,0.29-0.53c-2.55-0.68-5.05-1.36-7.56-2.03
				c-2.24-0.6-4.49-1.2-6.73-1.8c-1.68-0.45-2.25-1.81-1.4-3.34c0.67-1.19,1.36-2.38,2.05-3.56c0.08-0.14,0.21-0.28,0.35-0.36
				c2.06-1.21,4.13-2.41,6.2-3.61C698.13,399.16,698.18,399.17,698.3,399.15z"/>
		</g>
		<g>
			<path d="M700.33,395.73c-0.13,0.18-0.19,0.24-0.22,0.32c-0.42,1.07-1.28,1.65-2.24,2.17c-1.55,0.84-3.06,1.76-4.59,2.65
				c-0.14,0.08-0.29,0.16-0.56,0.3c0.14-0.27,0.21-0.43,0.3-0.59c1.65-2.87,3.31-5.74,4.97-8.6c0.88-1.52,2.25-1.7,3.5-0.44
				c3.77,3.77,7.54,7.53,11.29,11.31c0.28,0.28,0.56,0.39,0.95,0.39c1.89-0.02,3.78-0.02,5.67,0c1.38,0.01,2.26,0.94,2.11,2.19
				c-0.11,0.94-0.84,1.64-1.78,1.65c-2.5,0.02-5,0.01-7.5,0.01c-0.62,0-1.06-0.37-1.47-0.79c-3.33-3.34-6.67-6.68-10-10.02
				C700.63,396.12,700.51,395.95,700.33,395.73z"/>
		</g>
		<g>
			<path d="M708.93,384.42c0,0.88,0.09,1.71-0.02,2.51c-0.26,1.88-1.83,3.39-3.76,3.76c-1.78,0.34-3.76-0.53-4.77-2.1
				c-1.01-1.58-0.96-3.75,0.14-5.25c1.29-1.76,3.49-2.41,5.51-1.63c1.83,0.71,3.65,1.43,5.47,2.16c0.17,0.07,0.29,0.24,0.44,0.36
				c-0.18,0.06-0.36,0.17-0.55,0.17C710.52,384.43,709.66,384.42,708.93,384.42z"/>
		</g>
	</g>
	<g>
		<path d="M719.41,412.8l-6.5,13h-13l-3.25-13H719.41 M722.65,410.8h-3.24h-22.76h-2.56l0.62,2.49l3.25,13l0.38,1.51h1.56h13h1.24
			l0.55-1.11l6.5-13L722.65,410.8L722.65,410.8z"/>
	</g>
	<rect x="699.5" y="426.61" width="14.63" height="4.06"/>
	<circle cx="699.9" cy="427.02" r="3.66"/>
</g>
<g>
	<g>
		<g>
			<g>
				<rect x="690.04" y="285.29" class="st5" width="32.55" height="43.41"/>
			</g>
			<g>
				<path d="M722.86,328.96h-33.1v-43.95h33.1V328.96z M690.31,328.42h32.01v-42.86h-32.01V328.42z"/>
			</g>
		</g>
		<g>
			<g>
				<g>
					<polygon class="st5" points="690.04,274.43 690.04,285.29 695.46,285.29 695.46,279.86 717.17,279.86 717.17,285.29 
						722.59,285.29 722.59,274.43 					"/>
				</g>
				<g>
					<path d="M722.86,285.56h-5.97v-5.43h-21.16v5.43h-5.97v-11.39h33.1V285.56z M717.44,285.01h4.88v-10.31h-32.01v10.31h4.88
						v-5.43h22.25V285.01z"/>
				</g>
			</g>
		</g>
		<g>
			<g>
				<rect x="690.04" y="328.69" class="st5" width="5.43" height="5.43"/>
			</g>
			<g>
				<path d="M695.73,334.39h-5.97v-5.97h5.97V334.39z M690.31,333.85h4.88v-4.88h-4.88V333.85z"/>
			</g>
		</g>
		<g>
			<g>
				<rect x="717.17" y="328.69" class="st5" width="5.43" height="5.43"/>
			</g>
			<g>
				<path d="M722.86,334.39h-5.97v-5.97h5.97V334.39z M717.44,333.85h4.88v-4.88h-4.88V333.85z"/>
			</g>
		</g>
	</g>
	<g>
		<g>
			<polyline class="st6" points="711.47,296.14 700.62,306.99 711.47,306.99 700.62,317.84 			"/>
		</g>
	</g>
</g>
<g>
	<g>
		<rect x="711.45" y="474.42" class="st1" width="10.81" height="5.4"/>
		<path d="M722.53,480.09h-11.35v-5.94h11.35V480.09z M711.72,479.55h10.27v-4.86h-10.27V479.55z"/>
	</g>
	<g>
		<g>
			<rect x="689.56" y="474.15" class="st7" width="11.35" height="5.94"/>
		</g>
		<g>
			<path d="M700.64,474.42v5.4h-10.81v-5.4H700.64 M701.18,473.88h-0.54h-10.81h-0.54v0.54v5.4v0.54h0.54h10.81h0.54v-0.54v-5.4
				V473.88L701.18,473.88z"/>
		</g>
	</g>
	<g>
		<g>
			<polygon class="st7" points="727.93,469.28 727.93,528.73 684.7,528.73 684.7,480.09 706.31,480.09 706.31,469.28 			"/>
			<path d="M728.2,529h-43.77v-49.18h21.62v-10.81h22.16V529z M684.97,528.46h42.69v-58.91h-21.08v10.81h-21.62V528.46z"/>
		</g>
		<g>
			<path d="M711.59,505.18c-0.24-1.34-0.79-2.56-1.48-3.72c-0.96-1.63-2.13-3.1-3.39-4.51c-0.22-0.25-0.5-0.24-0.73,0.02
				c-0.51,0.6-1.04,1.2-1.53,1.81c-1.06,1.32-2,2.72-2.68,4.28c-0.46,1.07-0.77,2.17-0.78,2.91c0.01,2.22,0.64,3.79,1.82,4.94
				c2.15,2.1,5.47,1.94,7.4-0.36C711.55,508.99,711.95,507.18,711.59,505.18z"/>
		</g>
	</g>
</g>
<g>
	<g>
		<rect x="1032.56" y="423.91" transform="matrix(0.9701 -0.2428 0.2428 0.9701 -71.3451 271.4039)" width="65.32" height="2.38"/>
	</g>
</g>
<g>
	<g>
		<rect x="1095.92" y="423.91" transform="matrix(0.9701 -0.2428 0.2428 0.9701 -69.4483 286.792)" width="65.32" height="2.38"/>
	</g>
</g>
<g>
	<g>
		<rect x="1159.29" y="423.91" transform="matrix(0.9701 -0.2428 0.2428 0.9701 -67.5515 302.1801)" width="65.32" height="2.38"/>
	</g>
</g>
<g>
	<g>
		<polyline class="st6" points="1083.09,452.19 1074.08,461.2 1083.09,461.2 1074.08,470.2 		"/>
	</g>
</g>
<g>
	<g>
		<polygon class="st5" points="1034.11,497.89 1034.11,495.51 1056.68,495.51 1056.68,482.05 1056.68,480.86 1056.68,441.25 
			1059.06,441.25 1059.06,479.67 1096.29,479.67 1096.29,471.75 1105.4,471.75 1105.4,474.13 1098.66,474.13 1098.66,495.51 
			1105.4,495.51 1105.4,497.89 1096.29,497.89 1096.29,482.05 1059.06,482.05 1059.06,496.7 1059.06,497.89 1059.06,513.73 
			1034.11,513.73 1034.11,511.35 1056.68,511.35 1056.68,497.89 		"/>
	</g>
	<g>
		<path d="M1059.26,513.93h-25.35v-2.77h22.57v-13.07h-22.57v-2.77h22.57v-54.26h2.77v38.42h36.83v-7.92h9.51v2.77h-6.73v20.99h6.73
			v2.77h-9.51v-15.84h-36.83V513.93z M1034.31,513.53h24.55v-31.68h37.62v15.84h8.71v-1.98h-6.73v-21.78h6.73v-1.98h-8.71v7.92
			h-37.62v-38.42h-1.98v54.26h-22.57v1.98h22.57v13.86h-22.57V513.53z"/>
	</g>
</g>
<g>
	<g>
		<path d="M1214.92,441.73v77.62h-180.59v-77.62H1214.92 M1215.71,440.94h-182.18v79.21h182.18V440.94L1215.71,440.94z"/>
	</g>
</g>
<g>
	<g>
		
			<rect x="1199.87" y="520.15" transform="matrix(-1 -4.420698e-11 4.420698e-11 -1 2415.5806 1048.2144)" width="15.84" height="7.92"/>
	</g>
</g>
<g>
	<g>
		
			<rect x="1033.53" y="520.15" transform="matrix(-1 -4.432200e-11 4.432200e-11 -1 2082.9058 1048.2144)" width="15.84" height="7.92"/>
	</g>
</g>
<circle class="st5" cx="1128.72" cy="340.91" r="20"/>
<g>
	<g>
		<line class="st4" x1="1127.72" y1="377.91" x2="1127.72" y2="400.83"/>
		<g>
			<polygon points="1123.63,397.51 1124.36,396.83 1127.72,400.44 1131.08,396.83 1131.81,397.51 1127.72,401.91 			"/>
		</g>
	</g>
</g>
<g>
	<g>
		<line class="st4" x1="1192.22" y1="377.91" x2="1192.22" y2="400.83"/>
		<g>
			<polygon points="1188.13,397.51 1188.86,396.83 1192.22,400.44 1195.58,396.83 1196.31,397.51 1192.22,401.91 			"/>
		</g>
	</g>
</g>
<g>
	<g>
		<line class="st4" x1="1065.22" y1="377.91" x2="1065.22" y2="400.83"/>
		<g>
			<polygon points="1061.13,397.51 1061.86,396.83 1065.22,400.44 1068.58,396.83 1069.31,397.51 1065.22,401.91 			"/>
		</g>
	</g>
</g>
<g>
	<g>
		<line class="st4" x1="995.72" y1="496.41" x2="1018.63" y2="496.41"/>
		<g>
			<polygon points="1015.32,500.5 1014.64,499.77 1018.25,496.41 1014.64,493.05 1015.32,492.32 1019.72,496.41 			"/>
		</g>
	</g>
</g>
<g>
	<g>
		<line class="st4" x1="995.72" y1="512.41" x2="1018.63" y2="512.41"/>
		<g>
			<polygon points="1015.32,516.5 1014.64,515.77 1018.25,512.41 1014.64,509.05 1015.32,508.32 1019.72,512.41 			"/>
		</g>
	</g>
</g>
<g>
	<g>
		<polyline class="st6" points="1395.16,472.37 1386.15,481.38 1395.16,481.38 1386.15,490.39 		"/>
	</g>
</g>
<rect x="1215.72" y="470.91" class="st8" width="80" height="20"/>
<rect x="1155.72" y="470.91" class="st9" width="30" height="20"/>
<text transform="matrix(1 0 0 1 1165.0591 487.1519)" class="st10 st11">+</text>
<rect x="1135.72" y="460.91" class="st12" width="20" height="40"/>
<rect x="1095.72" y="460.91" class="st13" width="20" height="40"/>
<rect x="1115.72" y="460.91" class="st7" width="20" height="40"/>
<rect x="1095.72" y="460.91" class="st14" width="60" height="40"/>
<g>
	<g>
		<g id="BvuWaO.tif_1_">
			<g>
				<path d="M925.08,514.27c1.81,0.03,3.64,0.48,5.44,1.05c1.55,0.49,3.1,0.98,4.67,1.41c1.17,0.33,2.38,0.45,3.6,0.32
					c1.15-0.13,2.22-0.49,3.22-1.07c0.1-0.06,0.19-0.11,0.29-0.16c0.32-0.17,0.62-0.1,0.78,0.17c0.16,0.27,0.07,0.6-0.23,0.79
					c-0.93,0.57-1.91,0.99-2.97,1.22c-1.59,0.34-3.19,0.29-4.75-0.13c-1.67-0.44-3.31-0.98-4.96-1.49c-1.36-0.42-2.73-0.8-4.15-0.95
					c-2.26-0.24-4.38,0.19-6.39,1.22c-0.1,0.05-0.21,0.11-0.32,0.16c-0.29,0.13-0.61,0.02-0.75-0.25c-0.13-0.26-0.04-0.57,0.23-0.73
					c1.04-0.6,2.16-1.01,3.33-1.28C923.07,514.33,924.02,514.24,925.08,514.27z"/>
				<path d="M924.8,522.04c2.02,0.03,3.94,0.51,5.84,1.11c1.47,0.47,2.95,0.94,4.44,1.36c1.02,0.28,2.06,0.41,3.13,0.37
					c1.36-0.05,2.63-0.43,3.81-1.12c0.12-0.07,0.23-0.14,0.35-0.2c0.27-0.13,0.59-0.03,0.73,0.23c0.13,0.24,0.05,0.58-0.19,0.73
					c-1.17,0.72-2.42,1.19-3.78,1.39c-1.64,0.23-3.24-0.01-4.8-0.46c-1.46-0.42-2.91-0.9-4.37-1.36c-1.19-0.37-2.4-0.69-3.65-0.85
					c-2.2-0.28-4.29,0.04-6.29,0.99c-0.23,0.11-0.46,0.23-0.7,0.34c-0.32,0.15-0.62,0.05-0.77-0.24c-0.13-0.27-0.03-0.58,0.26-0.74
					c1.43-0.77,2.95-1.29,4.57-1.46C923.86,522.1,924.33,522.08,924.8,522.04z"/>
				<path d="M937.68,533.81c-1.5-0.02-3.13-0.41-4.73-0.92c-1.5-0.48-2.99-0.97-4.5-1.4c-1.34-0.39-2.71-0.56-4.1-0.51
					c-1.66,0.06-3.22,0.51-4.7,1.27c-0.12,0.06-0.24,0.13-0.36,0.18c-0.27,0.12-0.6,0.01-0.73-0.25c-0.13-0.26-0.05-0.6,0.23-0.73
					c0.61-0.29,1.21-0.6,1.85-0.83c2.17-0.81,4.4-0.9,6.67-0.51c1.79,0.31,3.5,0.91,5.21,1.47c1.2,0.39,2.39,0.77,3.64,0.98
					c2.09,0.35,4.07,0.11,5.92-0.99c0.09-0.05,0.18-0.1,0.27-0.15c0.28-0.15,0.6-0.06,0.76,0.21c0.14,0.25,0.06,0.57-0.2,0.74
					C941.43,533.3,939.65,533.81,937.68,533.81z"/>
			</g>
		</g>
		<g id="WMBexC.tif_1_">
			<g>
				<path d="M959.57,525.75c0.01-0.9,0.39-2.26,0.95-3.57c0.83-1.92,1.99-3.63,3.28-5.26c0.61-0.76,1.25-1.49,1.88-2.23
					c0.28-0.33,0.62-0.33,0.89-0.03c1.54,1.73,2.99,3.53,4.16,5.53c0.84,1.43,1.51,2.93,1.81,4.57c0.44,2.45-0.05,4.68-1.67,6.6
					c-2.37,2.83-6.44,3.01-9.08,0.44C960.36,530.4,959.58,528.48,959.57,525.75z M966.16,515.87c-0.07,0.07-0.13,0.12-0.18,0.18
					c-0.97,1.14-1.9,2.31-2.73,3.55c-0.98,1.48-1.85,3.02-2.31,4.76c-0.6,2.3-0.29,4.45,1.28,6.3c1.37,1.61,3.15,2.26,5.23,1.69
					c1.78-0.48,2.94-1.7,3.65-3.37c0.73-1.73,0.63-3.47,0.05-5.21c-0.53-1.59-1.36-3.03-2.29-4.41
					C968.05,518.14,967.13,517,966.16,515.87z"/>
				<path d="M962.8,526.47c0.1,1.22,0.48,2.31,1.46,3.12c0.22,0.18,0.26,0.53,0.08,0.75c-0.17,0.22-0.5,0.27-0.75,0.1
					c-0.51-0.36-0.91-0.83-1.21-1.37c-0.48-0.86-0.72-1.78-0.68-2.76c0.01-0.13,0.02-0.26,0.07-0.38c0.09-0.21,0.36-0.34,0.58-0.3
					c0.24,0.05,0.42,0.25,0.44,0.5C962.81,526.24,962.8,526.36,962.8,526.47z"/>
			</g>
		</g>
	</g>
	<g>
		<path d="M967.42,477.88c1.01-0.26,1.99-0.55,2.98-0.77c1.06-0.23,2.14-0.34,3.21-0.09c0.95,0.22,1.67,0.71,1.85,1.74
			c0.09,0.55-0.01,1.07-0.19,1.59c-0.44,1.24-1.19,2.29-2.04,3.27c-0.6,0.7-1.25,1.37-1.88,2.06c0.46,0.46,0.93,0.94,1.41,1.41
			c0.05,0.05,0.17,0.06,0.24,0.05c0.4-0.06,0.73,0.04,0.99,0.35c0.27,0.32,0.31,0.69,0.16,1.09c-0.04,0.09,0,0.25,0.06,0.35
			c0.47,0.73,0.92,1.47,1.11,2.33c0.09,0.42,0.14,0.87,0.08,1.3c-0.14,0.97-0.84,1.41-1.71,1.64c-0.88,0.23-1.79,0.2-2.67,0.02
			c-1.06-0.22-2.11-0.52-3.16-0.79c-0.12-0.03-0.23-0.07-0.38-0.12c-0.08,0.34-0.16,0.66-0.24,0.98c-0.35,1.32-0.75,2.63-1.5,3.78
			c-0.34,0.52-0.76,1.02-1.23,1.41c-0.77,0.63-1.74,0.57-2.53-0.05c-0.87-0.68-1.42-1.61-1.8-2.61c-0.41-1.06-0.71-2.16-1.05-3.25
			c-0.03-0.1-0.05-0.19-0.08-0.31c-0.56,0.18-1.09,0.37-1.64,0.52c-1.22,0.35-2.45,0.62-3.72,0.57c-0.35-0.01-0.71-0.05-1.06-0.15
			c-1.39-0.38-1.98-1.46-1.61-2.9c0.22-0.86,0.65-1.62,1.15-2.34c0.11-0.16,0.16-0.28,0.09-0.49c-0.21-0.64,0.28-1.32,0.95-1.31
			c0.28,0,0.45-0.09,0.63-0.28c0.39-0.42,0.79-0.82,1.19-1.23c-0.54-0.57-1.09-1.14-1.63-1.73c-0.91-1-1.71-2.07-2.21-3.34
			c-0.13-0.33-0.23-0.68-0.28-1.03c-0.18-1.31,0.5-2.27,1.79-2.56c1.15-0.26,2.29-0.16,3.42,0.11c0.99,0.24,1.96,0.54,2.96,0.83
			c0.15-0.52,0.3-1.07,0.45-1.61c0.03-0.1,0.04-0.2,0.09-0.29c0.12-0.26,0.11-0.47-0.07-0.75c-0.4-0.61,0.05-1.46,0.79-1.52
			c0.18-0.01,0.27-0.09,0.35-0.23c0.36-0.61,0.78-1.17,1.35-1.6c0.83-0.61,1.79-0.58,2.59,0.07c0.88,0.72,1.42,1.68,1.81,2.72
			c0.35,0.94,0.62,1.91,0.92,2.87C967.38,477.71,967.4,477.81,967.42,477.88z M959.09,485.61
			C959.09,485.61,959.09,485.61,959.09,485.61c0,0.69,0,1.38-0.01,2.08c0,0.21,0.07,0.34,0.24,0.45c1.07,0.67,2.13,1.36,3.2,2.02
			c0.69,0.43,0.71,0.43,1.4,0c1.15-0.72,2.28-1.45,3.41-2.19c0.1-0.06,0.17-0.25,0.17-0.37c0-1.29-0.02-2.58-0.02-3.88
			c0-0.22-0.07-0.36-0.25-0.47c-1.27-0.79-2.54-1.58-3.8-2.37c-0.17-0.11-0.3-0.11-0.47-0.01c-1.23,0.78-2.46,1.55-3.68,2.33
			c-0.09,0.06-0.17,0.21-0.17,0.31C959.09,484.21,959.09,484.91,959.09,485.61z M958.89,478.73c-1.37-0.54-2.78-0.94-4.26-1.1
			c-0.73-0.08-1.46-0.08-2.16,0.22c-0.65,0.28-0.96,0.79-0.86,1.48c0.05,0.33,0.13,0.66,0.26,0.97c0.49,1.21,1.26,2.23,2.12,3.18
			c0.51,0.57,1.06,1.12,1.58,1.66c0.71-0.58,1.34-1.17,2.06-1.65c0.56-0.38,0.82-0.8,0.86-1.5
			C958.54,480.91,958.74,479.84,958.89,478.73z M970.77,485.13c0.03-0.02,0.07-0.05,0.1-0.09c0.8-0.88,1.63-1.73,2.39-2.65
			c0.68-0.83,1.24-1.74,1.46-2.82c0.18-0.92-0.18-1.58-1.09-1.82c-0.49-0.13-1.03-0.2-1.54-0.14c-0.96,0.11-1.91,0.3-2.85,0.51
			c-0.56,0.12-1.09,0.35-1.58,0.52c0.16,1.45,0.32,2.83,0.48,4.21c0.01,0.09,0.06,0.2,0.13,0.25
			C969.1,483.78,969.93,484.45,970.77,485.13z M954.15,487.58c0.41,1.02-0.08,1.68-1.14,1.61c-0.07,0-0.18,0.05-0.22,0.11
			c-0.51,0.74-0.96,1.51-1.12,2.41c-0.16,0.83,0.14,1.49,0.88,1.72c0.49,0.16,1.04,0.25,1.55,0.24c1.58-0.05,3.09-0.46,4.57-0.99
			c0.17-0.06,0.21-0.14,0.19-0.31c-0.15-1.24-0.29-2.48-0.46-3.72c-0.02-0.14-0.12-0.3-0.23-0.39c-0.54-0.45-1.1-0.87-1.65-1.31
			c-0.31-0.25-0.62-0.52-0.93-0.79C955.1,486.65,954.63,487.11,954.15,487.58z M966.81,493.12c-1.15-0.56-2.27-1.09-3.38-1.64
			c-0.18-0.09-0.3-0.08-0.47,0.01c-0.78,0.39-1.57,0.77-2.36,1.15c-0.28,0.13-0.58,0.24-0.88,0.37c0.36,1.65,0.78,3.25,1.67,4.68
			c0.27,0.44,0.64,0.84,1.04,1.18c0.55,0.47,1.24,0.43,1.78-0.06c0.29-0.26,0.58-0.55,0.79-0.88
			C965.98,496.47,966.43,494.8,966.81,493.12z M967.67,492.61c0.01,0.01,0.05,0.03,0.1,0.05c1.18,0.45,2.39,0.8,3.65,0.96
			c0.81,0.11,1.63,0.12,2.41-0.18c0.68-0.26,0.99-0.74,0.94-1.47c-0.08-1.05-0.64-1.89-1.22-2.72c-0.03-0.04-0.14-0.06-0.2-0.05
			c-0.84,0.12-1.43-0.6-1.17-1.41c0.02-0.07,0.05-0.18,0.01-0.22c-0.48-0.48-0.97-0.95-1.44-1.41c-0.82,0.65-1.64,1.3-2.46,1.95
			c-0.07,0.06-0.13,0.16-0.14,0.25C967.98,489.77,967.83,491.16,967.67,492.61z M959.73,478.17c1.13,0.55,2.21,1.08,3.3,1.6
			c0.09,0.04,0.23,0.01,0.33-0.03c0.75-0.35,1.48-0.71,2.23-1.06c0.38-0.18,0.76-0.33,1.16-0.5c-0.38-1.61-0.82-3.17-1.7-4.56
			c-0.24-0.38-0.55-0.74-0.89-1.03c-0.58-0.51-1.16-0.5-1.78-0.05c-0.54,0.39-0.88,0.94-1.2,1.51c0.59,0.81,0.32,1.56-0.64,1.82
			c-0.06,0.02-0.14,0.08-0.16,0.14C960.15,476.71,959.94,477.44,959.73,478.17z M967.42,488.79c-1.18,0.75-2.29,1.45-3.46,2.19
			c1.01,0.47,1.99,0.93,3.02,1.41C967.13,491.16,967.27,490,967.42,488.79z M966.95,478.87c-1.04,0.48-2,0.93-3,1.39
			c1.17,0.74,2.28,1.44,3.47,2.19C967.27,481.25,967.12,480.1,966.95,478.87z M962.44,490.97c-1.13-0.7-2.19-1.37-3.32-2.07
			c0.15,1.16,0.29,2.26,0.44,3.43C960.55,491.86,961.47,491.43,962.44,490.97z M962.42,480.27c-0.94-0.44-1.86-0.86-2.83-1.31
			c-0.15,1.16-0.29,2.24-0.43,3.37C960.28,481.62,961.33,480.96,962.42,480.27z M956.09,485.62c0.77,0.63,1.48,1.21,2.23,1.82
			c0-1.25,0-2.41,0-3.65C957.56,484.42,956.86,484.99,956.09,485.62z M968.21,483.94c0,1.14,0,2.2,0,3.35
			c0.7-0.58,1.35-1.11,2.03-1.67C969.55,485.04,968.91,484.51,968.21,483.94z"/>
		<g>
			<path d="M917.55,479.92c-0.26-0.2-0.5-0.38-0.74-0.57c-0.1,0.12-0.18,0.24-0.28,0.36c-0.16,0.2-0.42,0.24-0.63,0.1
				c-0.19-0.13-0.24-0.43-0.09-0.63c0.42-0.56,0.84-1.12,1.26-1.68c0.47-0.63,0.93-1.26,1.42-1.88c0.09-0.11,0.24-0.2,0.38-0.24
				c0.17-0.05,0.32,0.04,0.42,0.19c0.1,0.15,0.09,0.31,0.01,0.47c-0.08,0.14-0.18,0.27-0.29,0.42c0.24,0.18,0.49,0.37,0.74,0.56
				c0.08-0.09,0.15-0.18,0.21-0.27c0.12-0.18,0.29-0.25,0.5-0.24c0.44,0.01,0.88,0.01,1.32,0c0.08,0,0.19-0.06,0.23-0.12
				c0.52-0.76,1.03-1.52,1.53-2.28c0.15-0.23,0.34-0.33,0.62-0.33c3.24,0.01,6.48,0,9.73,0c0.44,0,0.59,0.15,0.59,0.59
				c0,7.2,0,14.4,0,21.6c0,0.45-0.15,0.6-0.6,0.6c-5.36,0-10.73,0-16.09,0c-0.46,0-0.6-0.15-0.6-0.6c0-5.01,0-10.02-0.01-15.03
				c0-0.32,0.05-0.6,0.27-0.83C917.48,480.04,917.5,479.98,917.55,479.92z M933.56,474.69c-0.04-0.01-0.07-0.01-0.09-0.01
				c-0.91,0-1.82,0-2.73,0c-0.07,0-0.16,0.07-0.21,0.14c-0.51,0.75-1.02,1.51-1.51,2.27c-0.15,0.23-0.32,0.33-0.6,0.32
				c-2.54-0.01-5.08,0-7.62-0.01c-0.15,0-0.24,0.05-0.32,0.16c-0.75,1.01-1.51,2.01-2.27,3.02c-0.07,0.1-0.12,0.23-0.12,0.35
				c-0.01,4.82-0.01,9.64-0.01,14.46c0,0.07,0,0.14,0,0.22c5.17,0,10.32,0,15.48,0C933.56,488.64,933.56,481.67,933.56,474.69z
				 M929.51,474.69c-0.06-0.01-0.09-0.02-0.11-0.02c-1.68,0-3.35,0-5.03,0c-0.07,0-0.17,0.06-0.22,0.12
				c-0.33,0.47-0.64,0.94-0.96,1.41c-0.06,0.08-0.11,0.17-0.19,0.29c0.26,0,0.47,0,0.68,0c1.48,0,2.96,0,4.44,0
				c0.07,0,0.18-0.03,0.22-0.08C928.74,475.85,929.11,475.28,929.51,474.69z M918.08,479.2c0.37-0.5,0.73-0.98,1.09-1.47
				c-0.25-0.18-0.48-0.36-0.73-0.54c-0.37,0.49-0.73,0.97-1.09,1.46C917.59,478.83,917.82,479,918.08,479.2z"/>
			<path d="M931.28,493.84c-0.12-0.08-0.26-0.14-0.36-0.24c-0.81-0.8-1.6-1.6-2.41-2.4c-0.07-0.07-0.2-0.13-0.3-0.13
				c-1.59-0.01-3.17,0-4.76-0.01c-0.14,0-0.23,0.05-0.32,0.14c-0.8,0.8-1.6,1.6-2.4,2.4c-0.28,0.28-0.69,0.2-0.81-0.16
				c-0.07-0.21,0.03-0.35,0.17-0.49c0.58-0.58,1.16-1.15,1.74-1.73c0.24-0.24,0.48-0.47,0.71-0.71c0.06-0.06,0.1-0.16,0.1-0.24
				c0.01-1.6,0.01-3.21,0-4.81c0-0.09-0.06-0.2-0.12-0.27c-0.8-0.81-1.6-1.62-2.4-2.43c-0.23-0.24-0.25-0.5-0.04-0.71
				c0.18-0.18,0.46-0.15,0.68,0.07c0.79,0.8,1.59,1.6,2.37,2.41c0.1,0.11,0.21,0.16,0.36,0.15c1.57-0.01,3.14,0,4.72,0
				c0.14,0,0.23-0.04,0.33-0.14c0.81-0.82,1.63-1.64,2.44-2.45c0.19-0.19,0.45-0.21,0.63-0.05c0.22,0.18,0.22,0.46,0,0.69
				c-0.78,0.79-1.57,1.58-2.36,2.36c-0.16,0.15-0.22,0.31-0.22,0.53c0.01,1.53,0.01,3.07,0,4.6c0,0.13,0.04,0.23,0.13,0.32
				c0.81,0.79,1.61,1.59,2.41,2.4c0.09,0.1,0.18,0.23,0.2,0.36C931.79,493.6,931.58,493.8,931.28,493.84z M928.1,485.61
				c-1.53,0-3.03,0-4.55,0c0,1.52,0,3.02,0,4.54c1.52,0,3.03,0,4.55,0C928.1,488.64,928.1,487.13,928.1,485.61z"/>
		</g>
	</g>
</g>
<g>
	<g>
		<rect x="1295.64" y="441.31" class="st5" width="79.43" height="79.43"/>
	</g>
	<g>
		<path d="M1375.47,521.14h-80.23v-80.23h80.23V521.14z M1296.04,520.34h78.64v-78.64h-78.64V520.34z"/>
	</g>
</g>
<g>
	<g>
		<rect x="1305.01" y="487.07" width="36.45" height="6.08"/>
	</g>
	<g>
		<path class="st5" d="M1308.1,491.74v-2.39h-0.73v-0.34c0.26,0,0.45-0.04,0.57-0.13c0.12-0.08,0.2-0.23,0.23-0.42h0.38v3.28H1308.1
			z"/>
		<path class="st5" d="M1311.83,488.84c0.2,0.29,0.31,0.72,0.31,1.27s-0.1,0.97-0.31,1.27c-0.2,0.29-0.5,0.44-0.88,0.44
			s-0.68-0.15-0.88-0.44c-0.2-0.29-0.31-0.72-0.31-1.27s0.1-0.97,0.31-1.27c0.2-0.29,0.5-0.44,0.88-0.44
			S1311.63,488.54,1311.83,488.84z M1310.41,489.13c-0.12,0.22-0.19,0.55-0.19,0.98c0,0.43,0.06,0.76,0.19,0.98
			c0.12,0.23,0.3,0.34,0.53,0.34c0.24,0,0.42-0.11,0.54-0.34c0.12-0.23,0.19-0.55,0.19-0.98c0-0.43-0.06-0.75-0.19-0.98
			c-0.12-0.22-0.3-0.34-0.54-0.34C1310.72,488.79,1310.54,488.9,1310.41,489.13z"/>
		<path class="st5" d="M1313.56,491.74v-2.39h-0.73v-0.34c0.26,0,0.45-0.04,0.57-0.13c0.12-0.08,0.2-0.23,0.23-0.42h0.38v3.28
			H1313.56z"/>
		<path class="st5" d="M1317.29,488.84c0.2,0.29,0.31,0.72,0.31,1.27s-0.1,0.97-0.31,1.27c-0.2,0.29-0.5,0.44-0.88,0.44
			s-0.68-0.15-0.88-0.44c-0.2-0.29-0.31-0.72-0.31-1.27s0.1-0.97,0.31-1.27c0.2-0.29,0.5-0.44,0.88-0.44
			S1317.09,488.54,1317.29,488.84z M1315.88,489.13c-0.12,0.22-0.19,0.55-0.19,0.98c0,0.43,0.06,0.76,0.19,0.98
			c0.12,0.23,0.3,0.34,0.53,0.34c0.24,0,0.42-0.11,0.54-0.34c0.12-0.23,0.19-0.55,0.19-0.98c0-0.43-0.06-0.75-0.19-0.98
			c-0.12-0.22-0.3-0.34-0.54-0.34C1316.18,488.79,1316,488.9,1315.88,489.13z"/>
		<path class="st5" d="M1320.02,488.84c0.2,0.29,0.31,0.72,0.31,1.27s-0.1,0.97-0.31,1.27c-0.2,0.29-0.5,0.44-0.88,0.44
			s-0.68-0.15-0.88-0.44c-0.2-0.29-0.31-0.72-0.31-1.27s0.1-0.97,0.31-1.27c0.2-0.29,0.5-0.44,0.88-0.44
			S1319.82,488.54,1320.02,488.84z M1318.61,489.13c-0.12,0.22-0.19,0.55-0.19,0.98c0,0.43,0.06,0.76,0.19,0.98
			c0.12,0.23,0.3,0.34,0.53,0.34c0.24,0,0.42-0.11,0.54-0.34c0.12-0.23,0.19-0.55,0.19-0.98c0-0.43-0.06-0.75-0.19-0.98
			c-0.12-0.22-0.3-0.34-0.54-0.34C1318.91,488.79,1318.73,488.9,1318.61,489.13z"/>
		<path class="st5" d="M1321.75,491.74v-2.39h-0.73v-0.34c0.26,0,0.44-0.04,0.57-0.13c0.12-0.08,0.2-0.23,0.23-0.42h0.38v3.28
			H1321.75z"/>
		<path class="st5" d="M1325.49,488.84c0.2,0.29,0.31,0.72,0.31,1.27s-0.1,0.97-0.31,1.27c-0.2,0.29-0.5,0.44-0.88,0.44
			c-0.38,0-0.68-0.15-0.88-0.44c-0.2-0.29-0.31-0.72-0.31-1.27s0.1-0.97,0.31-1.27c0.2-0.29,0.5-0.44,0.88-0.44
			C1324.99,488.4,1325.28,488.54,1325.49,488.84z M1324.07,489.13c-0.12,0.22-0.19,0.55-0.19,0.98c0,0.43,0.06,0.76,0.19,0.98
			c0.12,0.23,0.3,0.34,0.53,0.34c0.24,0,0.42-0.11,0.54-0.34c0.12-0.23,0.19-0.55,0.19-0.98c0-0.43-0.06-0.75-0.19-0.98
			c-0.12-0.22-0.3-0.34-0.54-0.34C1324.37,488.79,1324.2,488.9,1324.07,489.13z"/>
		<path class="st5" d="M1327.22,491.74v-2.39h-0.73v-0.34c0.26,0,0.44-0.04,0.57-0.13c0.12-0.08,0.2-0.23,0.23-0.42h0.38v3.28
			H1327.22z"/>
		<path class="st5" d="M1330.95,488.84c0.2,0.29,0.31,0.72,0.31,1.27s-0.1,0.97-0.31,1.27c-0.2,0.29-0.5,0.44-0.88,0.44
			c-0.38,0-0.68-0.15-0.88-0.44c-0.2-0.29-0.31-0.72-0.31-1.27s0.1-0.97,0.31-1.27c0.2-0.29,0.5-0.44,0.88-0.44
			C1330.45,488.4,1330.75,488.54,1330.95,488.84z M1329.54,489.13c-0.12,0.22-0.19,0.55-0.19,0.98c0,0.43,0.06,0.76,0.19,0.98
			c0.12,0.23,0.3,0.34,0.53,0.34c0.24,0,0.42-0.11,0.54-0.34c0.12-0.23,0.19-0.55,0.19-0.98c0-0.43-0.06-0.75-0.19-0.98
			c-0.12-0.22-0.3-0.34-0.54-0.34C1329.84,488.79,1329.66,488.9,1329.54,489.13z"/>
		<path class="st5" d="M1332.68,491.74v-2.39h-0.73v-0.34c0.26,0,0.45-0.04,0.57-0.13c0.12-0.08,0.2-0.23,0.23-0.42h0.38v3.28
			H1332.68z"/>
		<path class="st5" d="M1336.41,488.84c0.2,0.29,0.31,0.72,0.31,1.27s-0.1,0.97-0.31,1.27c-0.2,0.29-0.5,0.44-0.88,0.44
			s-0.68-0.15-0.88-0.44c-0.2-0.29-0.31-0.72-0.31-1.27s0.1-0.97,0.31-1.27c0.2-0.29,0.5-0.44,0.88-0.44
			S1336.21,488.54,1336.41,488.84z M1335,489.13c-0.12,0.22-0.19,0.55-0.19,0.98c0,0.43,0.06,0.76,0.19,0.98
			c0.12,0.23,0.3,0.34,0.53,0.34c0.24,0,0.42-0.11,0.54-0.34c0.12-0.23,0.19-0.55,0.19-0.98c0-0.43-0.06-0.75-0.19-0.98
			c-0.12-0.22-0.3-0.34-0.54-0.34C1335.3,488.79,1335.12,488.9,1335,489.13z"/>
		<path class="st5" d="M1338.14,491.74v-2.39h-0.73v-0.34c0.26,0,0.45-0.04,0.57-0.13c0.12-0.08,0.2-0.23,0.23-0.42h0.38v3.28
			H1338.14z"/>
	</g>
	<g>
		<rect x="1305.01" y="499.22" width="36.45" height="6.08"/>
	</g>
	<g>
		<path class="st5" d="M1308.1,503.89v-2.39h-0.73v-0.34c0.26,0,0.45-0.04,0.57-0.13c0.12-0.08,0.2-0.23,0.23-0.42h0.38v3.28H1308.1
			z"/>
		<path class="st5" d="M1311.83,500.99c0.2,0.29,0.31,0.72,0.31,1.27s-0.1,0.97-0.31,1.27c-0.2,0.29-0.5,0.44-0.88,0.44
			s-0.68-0.15-0.88-0.44c-0.2-0.29-0.31-0.72-0.31-1.27s0.1-0.97,0.31-1.27c0.2-0.29,0.5-0.44,0.88-0.44
			S1311.63,500.7,1311.83,500.99z M1310.41,501.28c-0.12,0.22-0.19,0.55-0.19,0.98c0,0.43,0.06,0.76,0.19,0.98
			c0.12,0.23,0.3,0.34,0.53,0.34c0.24,0,0.42-0.11,0.54-0.34c0.12-0.23,0.19-0.55,0.19-0.98c0-0.43-0.06-0.75-0.19-0.98
			c-0.12-0.22-0.3-0.34-0.54-0.34C1310.72,500.94,1310.54,501.05,1310.41,501.28z"/>
		<path class="st5" d="M1313.56,503.89v-2.39h-0.73v-0.34c0.26,0,0.45-0.04,0.57-0.13c0.12-0.08,0.2-0.23,0.23-0.42h0.38v3.28
			H1313.56z"/>
		<path class="st5" d="M1317.29,500.99c0.2,0.29,0.31,0.72,0.31,1.27s-0.1,0.97-0.31,1.27c-0.2,0.29-0.5,0.44-0.88,0.44
			s-0.68-0.15-0.88-0.44c-0.2-0.29-0.31-0.72-0.31-1.27s0.1-0.97,0.31-1.27c0.2-0.29,0.5-0.44,0.88-0.44
			S1317.09,500.7,1317.29,500.99z M1315.88,501.28c-0.12,0.22-0.19,0.55-0.19,0.98c0,0.43,0.06,0.76,0.19,0.98
			c0.12,0.23,0.3,0.34,0.53,0.34c0.24,0,0.42-0.11,0.54-0.34c0.12-0.23,0.19-0.55,0.19-0.98c0-0.43-0.06-0.75-0.19-0.98
			c-0.12-0.22-0.3-0.34-0.54-0.34C1316.18,500.94,1316,501.05,1315.88,501.28z"/>
		<path class="st5" d="M1320.02,500.99c0.2,0.29,0.31,0.72,0.31,1.27s-0.1,0.97-0.31,1.27c-0.2,0.29-0.5,0.44-0.88,0.44
			s-0.68-0.15-0.88-0.44c-0.2-0.29-0.31-0.72-0.31-1.27s0.1-0.97,0.31-1.27c0.2-0.29,0.5-0.44,0.88-0.44
			S1319.82,500.7,1320.02,500.99z M1318.61,501.28c-0.12,0.22-0.19,0.55-0.19,0.98c0,0.43,0.06,0.76,0.19,0.98
			c0.12,0.23,0.3,0.34,0.53,0.34c0.24,0,0.42-0.11,0.54-0.34c0.12-0.23,0.19-0.55,0.19-0.98c0-0.43-0.06-0.75-0.19-0.98
			c-0.12-0.22-0.3-0.34-0.54-0.34C1318.91,500.94,1318.73,501.05,1318.61,501.28z"/>
		<path class="st5" d="M1321.75,503.89v-2.39h-0.73v-0.34c0.26,0,0.44-0.04,0.57-0.13c0.12-0.08,0.2-0.23,0.23-0.42h0.38v3.28
			H1321.75z"/>
		<path class="st5" d="M1325.49,500.99c0.2,0.29,0.31,0.72,0.31,1.27s-0.1,0.97-0.31,1.27c-0.2,0.29-0.5,0.44-0.88,0.44
			c-0.38,0-0.68-0.15-0.88-0.44c-0.2-0.29-0.31-0.72-0.31-1.27s0.1-0.97,0.31-1.27c0.2-0.29,0.5-0.44,0.88-0.44
			C1324.99,500.55,1325.28,500.7,1325.49,500.99z M1324.07,501.28c-0.12,0.22-0.19,0.55-0.19,0.98c0,0.43,0.06,0.76,0.19,0.98
			c0.12,0.23,0.3,0.34,0.53,0.34c0.24,0,0.42-0.11,0.54-0.34c0.12-0.23,0.19-0.55,0.19-0.98c0-0.43-0.06-0.75-0.19-0.98
			c-0.12-0.22-0.3-0.34-0.54-0.34C1324.37,500.94,1324.2,501.05,1324.07,501.28z"/>
		<path class="st5" d="M1327.22,503.89v-2.39h-0.73v-0.34c0.26,0,0.44-0.04,0.57-0.13c0.12-0.08,0.2-0.23,0.23-0.42h0.38v3.28
			H1327.22z"/>
		<path class="st5" d="M1330.95,500.99c0.2,0.29,0.31,0.72,0.31,1.27s-0.1,0.97-0.31,1.27c-0.2,0.29-0.5,0.44-0.88,0.44
			c-0.38,0-0.68-0.15-0.88-0.44c-0.2-0.29-0.31-0.72-0.31-1.27s0.1-0.97,0.31-1.27c0.2-0.29,0.5-0.44,0.88-0.44
			C1330.45,500.55,1330.75,500.7,1330.95,500.99z M1329.54,501.28c-0.12,0.22-0.19,0.55-0.19,0.98c0,0.43,0.06,0.76,0.19,0.98
			c0.12,0.23,0.3,0.34,0.53,0.34c0.24,0,0.42-0.11,0.54-0.34c0.12-0.23,0.19-0.55,0.19-0.98c0-0.43-0.06-0.75-0.19-0.98
			c-0.12-0.22-0.3-0.34-0.54-0.34C1329.84,500.94,1329.66,501.05,1329.54,501.28z"/>
		<path class="st5" d="M1332.68,503.89v-2.39h-0.73v-0.34c0.26,0,0.45-0.04,0.57-0.13c0.12-0.08,0.2-0.23,0.23-0.42h0.38v3.28
			H1332.68z"/>
		<path class="st5" d="M1336.41,500.99c0.2,0.29,0.31,0.72,0.31,1.27s-0.1,0.97-0.31,1.27c-0.2,0.29-0.5,0.44-0.88,0.44
			s-0.68-0.15-0.88-0.44c-0.2-0.29-0.31-0.72-0.31-1.27s0.1-0.97,0.31-1.27c0.2-0.29,0.5-0.44,0.88-0.44
			S1336.21,500.7,1336.41,500.99z M1335,501.28c-0.12,0.22-0.19,0.55-0.19,0.98c0,0.43,0.06,0.76,0.19,0.98
			c0.12,0.23,0.3,0.34,0.53,0.34c0.24,0,0.42-0.11,0.54-0.34c0.12-0.23,0.19-0.55,0.19-0.98c0-0.43-0.06-0.75-0.19-0.98
			c-0.12-0.22-0.3-0.34-0.54-0.34C1335.3,500.94,1335.12,501.05,1335,501.28z"/>
		<path class="st5" d="M1338.14,503.89v-2.39h-0.73v-0.34c0.26,0,0.45-0.04,0.57-0.13c0.12-0.08,0.2-0.23,0.23-0.42h0.38v3.28
			H1338.14z"/>
	</g>
	<g>
		<g>
			<rect x="1305.01" y="456.69" width="60.76" height="24.3"/>
		</g>
		<g>
			<path class="st5" d="M1365.77,477.95c-11.72,0-16.03-2.49-19.19-4.31c-1.77-1.02-3.06-1.76-5.12-1.76
				c-2.79,0-4.18,1.39-5.65,2.86c-1.58,1.58-3.22,3.22-6.51,3.22c-3.41,0-5.04-3.26-6.62-6.41c-1.48-2.95-2.87-5.74-5.53-5.74
				s-4.06,2.79-5.53,5.74c-1.58,3.15-3.21,6.41-6.62,6.41v-1.22c2.66,0,4.06-2.79,5.53-5.74c1.58-3.15,3.21-6.41,6.62-6.41
				c3.41,0,5.04,3.26,6.62,6.41c1.48,2.95,2.87,5.74,5.53,5.74c2.79,0,4.18-1.39,5.65-2.86c1.58-1.58,3.22-3.22,6.51-3.22
				c2.39,0,3.93,0.89,5.72,1.93c3.03,1.75,7.19,4.15,18.58,4.15V477.95z"/>
		</g>
		<g>
			<circle class="st5" cx="1344.51" cy="471.88" r="3.04"/>
		</g>
	</g>
	<g>
		<g>
			<path class="st15" d="M1359.7,502.26c-1,0-2.01,0-3.04,0c0,1.01,0,2.02,0,3.03c-3.04,0-6.07,0-9.1,0c0-3.04,0-6.07,0-9.11
				c2.02,0,4.04,0,6.07,0c0-0.06,0-0.1,0-0.15c0-1.92,0-3.84,0-5.77c0-0.06,0-0.11,0-0.17l0,0.01c1.01,0,2.03,0,3.03,0l0-0.01
				c0,1.01,0,2.02,0,3.03c1.03,0,2.03,0,3.04,0c0-0.05,0-0.1,0-0.16c0-0.96,0-1.92,0-2.88l0,0.01c1.01,0,2.03,0,3.04,0l0-0.01
				c0,1.01,0,2.02,0,3.04c1.01,0,2.01,0,3.03,0c0,1.02,0,2.03,0,3.04c-1.01,0-2.01,0-3.03,0c0,1.02,0,2.03,0,3.04l0,0
				c-0.87,0-1.75,0-2.63,0c-0.13,0-0.27,0-0.4-0.01c-0.01-0.05-0.01-0.1-0.01-0.14c0-0.91,0-1.83,0-2.74c0-0.05,0-0.09,0-0.15
				c-1.02,0-2.03,0-3.03,0c0,1.01,0,2.02,0,3.03c0.03,0,0.06,0,0.09,0c0.95,0,1.9,0,2.85,0c0.03,0,0.07-0.01,0.1-0.01
				c-0.01,0.05-0.01,0.1-0.01,0.14C1359.7,500.33,1359.7,501.29,1359.7,502.26L1359.7,502.26z M1354.59,503.2c0-1.65,0-3.29,0-4.94
				c-1.65,0-3.29,0-4.94,0c0,1.65,0,3.29,0,4.94C1351.3,503.2,1352.94,503.2,1354.59,503.2z"/>
		</g>
		<g>
			<path class="st15" d="M1353.63,490.1c-0.07,0-0.12,0.01-0.18,0.01c-0.91,0-1.81,0-2.72-0.01c-0.11,0-0.15,0.03-0.15,0.15
				c0,0.91,0,1.83,0,2.75c0,0.04,0,0.08,0,0.14c-0.04,0-0.07,0.01-0.11,0.01c-0.93,0-1.87,0-2.8,0c-0.11,0-0.14-0.02-0.14-0.13
				c0-1.93,0-3.87,0-5.8c0-0.12,0.04-0.14,0.16-0.14c1.92,0,3.85,0,5.77,0c0.11,0,0.16,0.02,0.16,0.14
				C1353.62,488.17,1353.63,489.14,1353.63,490.1L1353.63,490.1z"/>
		</g>
		<g>
			<path class="st15" d="M1356.66,490.11c0-1.01,0-2.02,0-3.03c1.01,0,2.02,0,3.04,0c0,1.01,0,2.02,0,3.03l0-0.01
				c-0.41,0-0.82,0.01-1.23,0.01C1357.87,490.11,1357.26,490.1,1356.66,490.11L1356.66,490.11z"/>
		</g>
		<g>
			<path class="st15" d="M1362.75,490.11c0-0.49,0-0.98,0-1.47c0-0.47,0-0.94,0-1.42c0-0.04,0-0.09,0-0.14c1.01,0,2.01,0,3.03,0
				c0,1.01,0,2.01,0,3.02c-0.03,0.01-0.06,0.01-0.09,0.01c-0.96,0-1.93,0-2.89,0C1362.78,490.11,1362.76,490.1,1362.75,490.11
				L1362.75,490.11z"/>
		</g>
		<g>
			<path class="st15" d="M1362.74,499.22c1,0,2.01,0,3.03,0c0,1.01,0,2.01,0,3.04c-1.01,0-2.02,0-3.03,0l0,0c0-0.32,0-0.64,0-0.97
				C1362.74,500.61,1362.74,499.92,1362.74,499.22L1362.74,499.22z"/>
		</g>
		<g>
			<path class="st15" d="M1362.74,502.26c0,1,0,2.01,0,3.03c-1.01,0-2.01,0-3.04,0c0-1.01,0-2.02,0-3.03l0,0
				c0.64,0,1.28-0.01,1.91-0.01C1361.99,502.26,1362.37,502.27,1362.74,502.26L1362.74,502.26z"/>
		</g>
		<g>
			<path class="st15" d="M1350.89,501.95c0-0.81,0-1.61,0-2.42c0.81,0,1.61,0,2.42,0c0,0.81,0,1.62,0,2.42
				C1352.51,501.95,1351.71,501.95,1350.89,501.95z"/>
		</g>
	</g>
</g>
<g>
	<circle cx="495" cy="723" r="20"/>
	<g>
		
			<rect x="487.69" y="719.71" transform="matrix(0.7071 -0.7072 0.7072 0.7071 -365.5185 563.654)" class="st1" width="19.74" height="6.58"/>
		
			<rect x="484.5" y="719.24" transform="matrix(0.7072 -0.707 0.707 0.7072 -368.0161 556.4212)" class="st1" width="6.58" height="6.58"/>
	</g>
</g>
</svg>
