<svg xmlns="http://www.w3.org/2000/svg" width="181.549" height="110.03" viewBox="0 0 181.549 110.03">
  <g id="Group_1" data-name="Group 1" transform="translate(-100.357 -99.97)">
    <path id="Path_1" data-name="Path 1" d="M171.876,154.985h16.5a38.51,38.51,0,0,1,38.51-38.51h55.015V99.97H226.891A55.015,55.015,0,0,0,171.876,154.985Z" fill="#efd61d"/>
    <path id="Path_2" data-name="Path 2" d="M226.891,193.5H171.876V210h55.015a55.015,55.015,0,0,0,55.015-55.015H265.4A38.511,38.511,0,0,1,226.891,193.5Z" fill="#e0c420"/>
    <path id="Path_3" data-name="Path 3" d="M116.861,154.985V99.97h-16.5v55.015A55.015,55.015,0,0,0,155.372,210V193.5A38.511,38.511,0,0,1,116.861,154.985Z" fill="#ffe91c"/>
  </g>
</svg>
