<svg xmlns="http://www.w3.org/2000/svg" width="359.555" height="38.506" viewBox="0 0 359.555 38.506">
  <g id="Group_2" data-name="Group 2" transform="translate(-100.356 -291.494)">
    <path id="Path_4" data-name="Path 4" d="M100.356,322.282V292.015h5.724v25.193H118v5.074Z" fill="#ffe91c"/>
    <path id="Path_5" data-name="Path 5" d="M135.566,322.282v-4.6h3.99V296.611h-3.99v-4.6h13.745v4.6h-4.032v21.074h4.032v4.6Z" fill="#ffe91c"/>
    <path id="Path_6" data-name="Path 6" d="M186.387,330h-4.206a5.9,5.9,0,0,1-4.4-1.452,5.646,5.646,0,0,1-1.409-4.1v-1.822a11.541,11.541,0,0,1-7.87-4.683q-2.928-3.945-2.928-10.8a21.8,21.8,0,0,1,.955-6.743,14.171,14.171,0,0,1,2.668-4.922,10.781,10.781,0,0,1,4.14-2.991,15.216,15.216,0,0,1,10.84,0,10.984,10.984,0,0,1,4.164,2.991,13.786,13.786,0,0,1,2.666,4.922,22.255,22.255,0,0,1,.931,6.743q0,6.723-2.731,10.58a11.453,11.453,0,0,1-7.459,4.77v2.819h4.641Zm-7.632-12.272a6.587,6.587,0,0,0,5.182-2.168,8.823,8.823,0,0,0,1.93-6.071v-4.683a8.828,8.828,0,0,0-1.93-6.07,7.276,7.276,0,0,0-10.363,0,8.813,8.813,0,0,0-1.931,6.07v4.683a8.809,8.809,0,0,0,1.931,6.071A6.584,6.584,0,0,0,178.755,317.728Z" fill="#ffe91c"/>
    <path id="Path_7" data-name="Path 7" d="M214.05,292.015v18.6a8.679,8.679,0,0,0,1.367,5.334q1.365,1.779,4.618,1.777t4.617-1.777a8.679,8.679,0,0,0,1.367-5.334v-18.6h5.637V309.88a23.174,23.174,0,0,1-.629,5.767,9.815,9.815,0,0,1-2.017,4.033,8.113,8.113,0,0,1-3.621,2.363,16.892,16.892,0,0,1-5.4.759,16.654,16.654,0,0,1-5.4-.759,8.146,8.146,0,0,1-3.578-2.363,9.62,9.62,0,0,1-1.994-4.033,24.045,24.045,0,0,1-.607-5.767V292.015Z" fill="#efd61d"/>
    <path id="Path_8" data-name="Path 8" d="M249.088,322.282v-4.6h3.99V296.611h-3.99v-4.6h13.745v4.6H258.8v21.074h4.033v4.6Z" fill="#efd61d"/>
    <path id="Path_9" data-name="Path 9" d="M281.434,292.015h11.014a14.419,14.419,0,0,1,5.356.954,10.94,10.94,0,0,1,4.119,2.84,12.92,12.92,0,0,1,2.645,4.726,23.924,23.924,0,0,1,0,13.225,12.921,12.921,0,0,1-2.645,4.728,10.94,10.94,0,0,1-4.119,2.84,14.419,14.419,0,0,1-5.356.954H281.434Zm11.014,25.193a6.884,6.884,0,0,0,5.1-1.886q1.887-1.885,1.886-5.788v-4.771q0-3.9-1.886-5.789a6.884,6.884,0,0,0-5.1-1.886h-5.29v20.12Z" fill="#efd61d"/>
    <path id="Path_10" data-name="Path 10" d="M331.908,322.8a14.378,14.378,0,0,1-6.614-1.39,15.348,15.348,0,0,1-4.66-3.649l3.86-3.735a11.028,11.028,0,0,0,3.489,2.754,9.552,9.552,0,0,0,4.272.946,6.036,6.036,0,0,0,3.99-1.14,3.828,3.828,0,0,0,1.343-3.077,3.484,3.484,0,0,0-.868-2.452,5.824,5.824,0,0,0-3.251-1.377l-2.862-.43q-9.063-1.433-9.062-8.813a8.729,8.729,0,0,1,.758-3.691,7.843,7.843,0,0,1,2.191-2.822,10.112,10.112,0,0,1,3.447-1.8,15.316,15.316,0,0,1,4.573-.63,14.712,14.712,0,0,1,5.985,1.131,11.741,11.741,0,0,1,4.379,3.344l-3.9,3.694a9.019,9.019,0,0,0-2.731-2.236,8.5,8.5,0,0,0-4.033-.859,6.168,6.168,0,0,0-3.709.924,3.52,3.52,0,0,0-.237,5.137,7.028,7.028,0,0,0,3.209,1.2l2.818.521q4.6.825,6.787,2.93a7.782,7.782,0,0,1,2.188,5.883,9.806,9.806,0,0,1-.758,3.927,8.5,8.5,0,0,1-2.212,3.039,10.077,10.077,0,0,1-3.555,1.975A15.415,15.415,0,0,1,331.908,322.8Z" fill="#e0c420"/>
    <path id="Path_11" data-name="Path 11" d="M372.754,297.088v25.194H367.03V297.088h-8.585v-5.073h22.9v5.073Z" fill="#e0c420"/>
    <path id="Path_12" data-name="Path 12" d="M414.469,322.282l-2.427-7.719H401.288l-2.385,7.719h-5.811l10.147-30.267h7.111l10.061,30.267Zm-7.719-25.063h-.215l-3.86,12.444h7.979Z" fill="#e0c420"/>
    <path id="Path_13" data-name="Path 13" d="M442.48,322.282h-5.724V292.015h13.66a10.061,10.061,0,0,1,3.729.651,7.524,7.524,0,0,1,2.8,1.886,8.615,8.615,0,0,1,1.779,2.97,11.29,11.29,0,0,1,.627,3.859,9.941,9.941,0,0,1-1.408,5.377,7.694,7.694,0,0,1-4.227,3.209l6.2,12.315h-6.373L447.9,310.617H442.48Zm7.372-16.478a3.661,3.661,0,0,0,2.6-.889,3.293,3.293,0,0,0,.955-2.537v-1.994a3.229,3.229,0,0,0-.955-2.516,3.725,3.725,0,0,0-2.6-.867H442.48v8.8Z" fill="#e0c420"/>
  </g>
</svg>
