<svg id="Capa_1" enable-background="new 0 0 512.101 512.101" height="512" viewBox="0 0 512.101 512.101" width="512" xmlns="http://www.w3.org/2000/svg"><g><circle cx="256.05" cy="256.05" fill="#4a696f" r="255.707"/><path d="m436.862 436.862c100.301-100.3 100.335-261.29 0-361.624-48.485-48.486-112.699-75.188-180.812-75.188v512c68.113 0 132.327-26.702 180.812-75.188z" fill="#384949"/><path d="m344.05 209.05h-73v-97c0-6.957-4.783-13-11.554-14.599-6.775-1.601-13.752 1.669-16.863 7.891l-88 176c-4.977 9.954 2.269 21.708 13.417 21.708h73v97c0 8.305 6.741 15.001 15.003 15.001 5.582 0 10.831-3.129 13.413-8.293l88-176c4.978-9.954-2.269-21.708-13.416-21.708z" fill="#fed843"/><path d="m344.05 209.05h-73v-97c0-8.143-6.559-14.988-15-14.991 0 325.09.103 317.993.003 317.993 5.582 0 10.831-3.129 13.413-8.293l88-176c4.978-9.955-2.269-21.709-13.416-21.709z" fill="#fabe2c"/></g></svg>